M48
; DRILL file {KiCad (6.99.0-3325-gcb6b2da55f)} date Tue May  2 13:50:08 2023
; FORMAT={-:-/ absolute / inch / decimal}
; #@! TF.CreationDate,2023-05-02T13:50:08+02:00
; #@! TF.GenerationSoftware,Kicad,Pcbnew,(6.99.0-3325-gcb6b2da55f)
; #@! TF.FileFunction,Plated,1,2,PTH
FMAT,2
INCH
; #@! TA.AperFunction,Plated,PTH,ViaDrill
T1C0.0157
; #@! TA.AperFunction,Plated,PTH,ComponentDrill
T2C0.0295
; #@! TA.AperFunction,Plated,PTH,ComponentDrill
T3C0.0300
; #@! TA.AperFunction,Plated,PTH,ComponentDrill
T4C0.0315
; #@! TA.AperFunction,Plated,PTH,ComponentDrill
T5C0.0598
%
G90
G05
T1
X4.1793Y-4.4808
X4.4262Y-3.8524
X4.6161Y-3.8072
X4.6161Y-4.1259
X4.626Y-4.4571
X4.7081Y-4.4538
X4.8228Y-4.4568
X4.8277Y-4.6581
X4.8991Y-4.6443
X4.9032Y-4.0395
X4.9508Y-4.2421
X5.0197Y-4.4802
X5.0591Y-4.3209
X5.1083Y-4.2126
X5.1205Y-4.7551
X5.1257Y-4.4956
X5.2782Y-4.2969
T2
X3.74Y-4.0845
X3.74Y-4.1633
X3.74Y-4.242
X3.7403Y-4.5018
X3.7403Y-4.5806
X3.7403Y-4.6593
X3.7403Y-4.738
X3.7403Y-4.8168
X3.7403Y-4.8955
X3.7403Y-4.9743
X3.7403Y-5.053
X5.2511Y-5.074
X5.3299Y-5.074
X5.4086Y-5.074
X5.4874Y-5.074
X5.5661Y-5.074
X5.6449Y-5.074
T3
X4.4476Y-4.7116
X4.5476Y-4.7116
X4.6476Y-4.7116
X4.7476Y-4.712
X4.8476Y-4.712
X4.9476Y-4.712
T4
X4.1738Y-3.4258
X4.1738Y-3.5258
X4.1738Y-3.6258
X4.1738Y-3.7258
X5.1367Y-3.4523
X5.1367Y-3.7523
X5.4367Y-3.4523
X5.4367Y-3.7523
X5.6367Y-3.4523
X5.6367Y-3.7523
X5.8367Y-3.4523
X5.8367Y-3.7523
T5
X3.811Y-3.408
X3.811Y-3.608
X3.811Y-3.808
T0
M30
