%TF.GenerationSoftware,KiCad,Pcbnew,(6.99.0-3325-gcb6b2da55f)*%
%TF.CreationDate,2023-05-02T13:50:11+02:00*%
%TF.ProjectId,ac-control,61632d63-6f6e-4747-926f-6c2e6b696361,V1.0.0*%
%TF.SameCoordinates,Original*%
%TF.FileFunction,Copper,L1,Top*%
%TF.FilePolarity,Positive*%
%FSLAX46Y46*%
G04 Gerber Fmt 4.6, Leading zero omitted, Abs format (unit mm)*
G04 Created by KiCad (PCBNEW (6.99.0-3325-gcb6b2da55f)) date 2023-05-02 13:50:11*
%MOMM*%
%LPD*%
G01*
G04 APERTURE LIST*
G04 Aperture macros list*
%AMRoundRect*
0 Rectangle with rounded corners*
0 $1 Rounding radius*
0 $2 $3 $4 $5 $6 $7 $8 $9 X,Y pos of 4 corners*
0 Add a 4 corners polygon primitive as box body*
4,1,4,$2,$3,$4,$5,$6,$7,$8,$9,$2,$3,0*
0 Add four circle primitives for the rounded corners*
1,1,$1+$1,$2,$3*
1,1,$1+$1,$4,$5*
1,1,$1+$1,$6,$7*
1,1,$1+$1,$8,$9*
0 Add four rect primitives between the rounded corners*
20,1,$1+$1,$2,$3,$4,$5,0*
20,1,$1+$1,$4,$5,$6,$7,0*
20,1,$1+$1,$6,$7,$8,$9,0*
20,1,$1+$1,$8,$9,$2,$3,0*%
G04 Aperture macros list end*
%TA.AperFunction,SMDPad,CuDef*%
%ADD10R,1.100000X2.500000*%
%TD*%
%TA.AperFunction,SMDPad,CuDef*%
%ADD11R,2.500000X1.100000*%
%TD*%
%TA.AperFunction,ComponentPad*%
%ADD12RoundRect,0.250000X0.350000X0.625000X-0.350000X0.625000X-0.350000X-0.625000X0.350000X-0.625000X0*%
%TD*%
%TA.AperFunction,ComponentPad*%
%ADD13O,1.200000X1.750000*%
%TD*%
%TA.AperFunction,ComponentPad*%
%ADD14RoundRect,0.250000X0.625000X-0.350000X0.625000X0.350000X-0.625000X0.350000X-0.625000X-0.350000X0*%
%TD*%
%TA.AperFunction,ComponentPad*%
%ADD15O,1.750000X1.200000*%
%TD*%
%TA.AperFunction,ComponentPad*%
%ADD16R,3.000000X3.000000*%
%TD*%
%TA.AperFunction,ComponentPad*%
%ADD17C,3.000000*%
%TD*%
%TA.AperFunction,ComponentPad*%
%ADD18C,1.524000*%
%TD*%
%TA.AperFunction,ComponentPad*%
%ADD19C,1.600000*%
%TD*%
%TA.AperFunction,ComponentPad*%
%ADD20R,1.800000X1.600000*%
%TD*%
%TA.AperFunction,ComponentPad*%
%ADD21R,1.500000X1.500000*%
%TD*%
%TA.AperFunction,ComponentPad*%
%ADD22C,1.500000*%
%TD*%
%TA.AperFunction,ViaPad*%
%ADD23C,0.800000*%
%TD*%
%TA.AperFunction,Conductor*%
%ADD24C,0.250000*%
%TD*%
G04 APERTURE END LIST*
D10*
%TO.P,U2,1,REST*%
%TO.N,/REST*%
X116486299Y-116056399D03*
%TO.P,U2,2,ADC*%
%TO.N,/ADC*%
X118486299Y-116056399D03*
%TO.P,U2,3,CH_PD*%
%TO.N,/EN*%
X120486299Y-116056399D03*
%TO.P,U2,4,GPIO16*%
%TO.N,/GPIO16*%
X122486299Y-116056399D03*
%TO.P,U2,5,GPIO14*%
%TO.N,/GPIO14*%
X124486299Y-116056399D03*
%TO.P,U2,6,GPIO12*%
%TO.N,/GPIO12*%
X126486299Y-116056399D03*
%TO.P,U2,7,GPIO13*%
%TO.N,/GPIO13*%
X128486299Y-116056399D03*
%TO.P,U2,8,VCC*%
%TO.N,+3.3V*%
X130486299Y-116056399D03*
%TO.P,U2,9,GND*%
%TO.N,GND*%
X130486299Y-100656399D03*
%TO.P,U2,10,GPIO15*%
%TO.N,/GPIO15*%
X128486299Y-100656399D03*
%TO.P,U2,11,GPIO2*%
%TO.N,/GPIO2*%
X126486299Y-100656399D03*
%TO.P,U2,12,GPIO0*%
%TO.N,/GPIO0*%
X124486299Y-100656399D03*
%TO.P,U2,13,GPIO4*%
%TO.N,/GPIO4*%
X122486299Y-100656399D03*
%TO.P,U2,14,GPIO5*%
%TO.N,/GPIO5*%
X120486299Y-100656399D03*
%TO.P,U2,15,RXD*%
%TO.N,/RX*%
X118486299Y-100656399D03*
%TO.P,U2,16,TXD*%
%TO.N,/TX*%
X116486299Y-100656399D03*
D11*
%TO.P,U2,17,CS0*%
%TO.N,unconnected-(U2-CS0)*%
X132186299Y-113366399D03*
%TO.P,U2,18,MISO*%
%TO.N,unconnected-(U2-MISO)*%
X132186299Y-111366399D03*
%TO.P,U2,19,GPIO9*%
%TO.N,unconnected-(U2-GPIO9)*%
X132186299Y-109366399D03*
%TO.P,U2,20,GPIO10*%
%TO.N,unconnected-(U2-GPIO10)*%
X132186299Y-107366399D03*
%TO.P,U2,21,MOSI*%
%TO.N,unconnected-(U2-MOSI)*%
X132186299Y-105366399D03*
%TO.P,U2,22,SCLK*%
%TO.N,unconnected-(U2-SCLK)*%
X132186299Y-103366399D03*
%TD*%
D12*
%TO.P,J4,1,Pin_1*%
%TO.N,/GPIO0*%
X143379200Y-128879600D03*
D13*
%TO.P,J4,2,Pin_2*%
%TO.N,/REST*%
X141379199Y-128879599D03*
%TO.P,J4,3,Pin_3*%
%TO.N,/RX*%
X139379199Y-128879599D03*
%TO.P,J4,4,Pin_4*%
%TO.N,/TX*%
X137379199Y-128879599D03*
%TO.P,J4,5,Pin_5*%
%TO.N,GND*%
X135379199Y-128879599D03*
%TO.P,J4,6,Pin_6*%
%TO.N,VBUS*%
X133379199Y-128879599D03*
%TD*%
D14*
%TO.P,J2,1,Pin_1*%
%TO.N,+3.3V*%
X94996000Y-107746800D03*
D15*
%TO.P,J2,2,Pin_2*%
%TO.N,/GPIO16*%
X94995999Y-105746799D03*
%TO.P,J2,3,Pin_3*%
%TO.N,GND*%
X94995999Y-103746799D03*
%TD*%
D16*
%TO.P,J5,1,Pin_1*%
%TO.N,Earth*%
X96799399Y-96723199D03*
D17*
%TO.P,J5,2,Pin_2*%
%TO.N,unconnected-(J5-Pin_2)*%
X96799400Y-91643200D03*
%TO.P,J5,3,Pin_3*%
%TO.N,AC*%
X96799400Y-86563200D03*
%TD*%
D15*
%TO.P,J1,8,Pin_8*%
%TO.N,/GPIO5*%
X95004799Y-114346199D03*
%TO.P,J1,7,Pin_7*%
%TO.N,/GPIO4*%
X95004799Y-116346199D03*
%TO.P,J1,6,Pin_6*%
%TO.N,/GPIO12*%
X95004799Y-118346199D03*
%TO.P,J1,5,Pin_5*%
%TO.N,/GPIO15*%
X95004799Y-120346199D03*
%TO.P,J1,4,Pin_4*%
%TO.N,/GPIO14*%
X95004799Y-122346199D03*
%TO.P,J1,3,Pin_3*%
%TO.N,/GPIO13*%
X95004799Y-124346199D03*
%TO.P,J1,2,Pin_2*%
%TO.N,GND*%
X95004799Y-126346199D03*
D14*
%TO.P,J1,1,Pin_1*%
%TO.N,+3.3V*%
X95004800Y-128346200D03*
%TD*%
D18*
%TO.P,J3,1,Pin_1*%
%TO.N,unconnected-(J3-Pin_1)*%
X125669200Y-119684000D03*
%TO.P,J3,2,Pin_2*%
%TO.N,unconnected-(J3-Pin_2)*%
X123129200Y-119684000D03*
%TO.P,J3,3,Pin_3*%
%TO.N,unconnected-(J3-Pin_3)*%
X120589200Y-119684000D03*
%TO.P,J3,4,Pin_4*%
%TO.N,unconnected-(J3-Pin_4)*%
X118049200Y-119674000D03*
%TO.P,J3,5,Pin_5*%
%TO.N,GND*%
X115509200Y-119674000D03*
%TO.P,J3,6,Pin_6*%
%TO.N,VBUS*%
X112969200Y-119674000D03*
%TD*%
D19*
%TO.P,K1,11*%
%TO.N,unconnected-(K1-Pad11)*%
X138092500Y-95307500D03*
%TO.P,K1,12*%
%TO.N,unconnected-(K1-Pad12)*%
X143172500Y-95307500D03*
%TO.P,K1,14*%
%TO.N,unconnected-(K1-Pad14)*%
X148252500Y-95307500D03*
%TO.P,K1,21*%
%TO.N,Earth*%
X138092500Y-87687500D03*
%TO.P,K1,22*%
%TO.N,unconnected-(K1-Pad22)*%
X143172500Y-87687500D03*
%TO.P,K1,24*%
%TO.N,AC*%
X148252500Y-87687500D03*
D20*
%TO.P,K1,A1*%
%TO.N,+3.3V*%
X130472499Y-95307499D03*
D19*
%TO.P,K1,A2*%
%TO.N,Net-(D2-A)*%
X130472500Y-87687500D03*
%TD*%
D21*
%TO.P,U1,1,VCC*%
%TO.N,+3.3V*%
X106015499Y-87016299D03*
D22*
%TO.P,U1,2,IO*%
%TO.N,/GPIO2*%
X106015500Y-89556300D03*
%TO.P,U1,3,NC*%
%TO.N,unconnected-(U1-NC)*%
X106015500Y-92096300D03*
%TO.P,U1,4,GND*%
%TO.N,GND*%
X106015500Y-94636300D03*
%TD*%
D23*
%TO.N,GND*%
X129750000Y-107000000D03*
X125750000Y-107750000D03*
X128500000Y-109750000D03*
%TO.N,/GPIO13*%
X122624100Y-118316600D03*
%TO.N,/GPIO14*%
X124436500Y-117965400D03*
%TO.N,/GPIO16*%
X119585700Y-113125700D03*
%TO.N,/EN*%
X130061500Y-120780400D03*
%TO.N,/GPIO15*%
X112426400Y-97852000D03*
%TO.N,/GPIO0*%
X124540200Y-102603800D03*
%TO.N,+3.3V*%
X130192300Y-114187300D03*
%TO.N,GND*%
X117250000Y-96704100D03*
X122500000Y-113202800D03*
X117500000Y-113209800D03*
X134066000Y-109141300D03*
X106153000Y-113811600D03*
X117250000Y-104798400D03*
X127500000Y-113796400D03*
%TD*%
D24*
%TO.N,/GPIO15*%
X104543800Y-98125600D02*
X96332900Y-106336500D01*
X112426400Y-98125600D02*
X104543800Y-98125600D01*
X93299300Y-111288800D02*
X93299300Y-118291700D01*
X96332900Y-106336500D02*
X96332900Y-108255200D01*
X93299300Y-118291700D02*
X94428700Y-119421100D01*
X96332900Y-108255200D02*
X93299300Y-111288800D01*
X94428700Y-119421100D02*
X95004800Y-119421100D01*
X95004800Y-120346200D02*
X95004800Y-119421100D01*
%TO.N,AC*%
X97421500Y-85941100D02*
X96799400Y-86563200D01*
X146506100Y-85941100D02*
X97421500Y-85941100D01*
X148252500Y-87687500D02*
X146506100Y-85941100D01*
%TO.N,Earth*%
X98624500Y-95379900D02*
X98624500Y-96723200D01*
X105551800Y-88452600D02*
X98624500Y-95379900D01*
X106611800Y-88452600D02*
X105551800Y-88452600D01*
X106973000Y-88813800D02*
X106611800Y-88452600D01*
X136966200Y-88813800D02*
X106973000Y-88813800D01*
X138092500Y-87687500D02*
X136966200Y-88813800D01*
X96799400Y-96723200D02*
X98624500Y-96723200D01*
%TO.N,/GPIO13*%
X128486300Y-115356400D02*
X128486300Y-117631500D01*
X125945100Y-117631500D02*
X128486300Y-117631500D01*
X124845500Y-118731100D02*
X125945100Y-117631500D01*
X124136200Y-118731100D02*
X124845500Y-118731100D01*
X123721700Y-118316600D02*
X124136200Y-118731100D01*
X122624100Y-118316600D02*
X123721700Y-118316600D01*
%TO.N,/GPIO14*%
X124486300Y-115356400D02*
X124486300Y-117631500D01*
X124436500Y-117681300D02*
X124436500Y-117965400D01*
X124486300Y-117631500D02*
X124436500Y-117681300D01*
%TO.N,/GPIO16*%
X121130700Y-113125700D02*
X122486300Y-114481300D01*
X119585700Y-113125700D02*
X121130700Y-113125700D01*
X122486300Y-115356400D02*
X122486300Y-114481300D01*
%TO.N,/EN*%
X120486300Y-115356400D02*
X120486300Y-117631500D01*
X122650900Y-120780400D02*
X130061500Y-120780400D01*
X121898900Y-120028400D02*
X122650900Y-120780400D01*
X121898900Y-119044100D02*
X121898900Y-120028400D01*
X120486300Y-117631500D02*
X121898900Y-119044100D01*
%TO.N,/GPIO2*%
X116961300Y-89556300D02*
X126486300Y-99081300D01*
X106015500Y-89556300D02*
X116961300Y-89556300D01*
X126486300Y-101356400D02*
X126486300Y-99081300D01*
%TO.N,/GPIO15*%
X128486300Y-101356400D02*
X128486300Y-102231500D01*
X124215200Y-98125600D02*
X112426400Y-98125600D01*
X125551600Y-99462000D02*
X124215200Y-98125600D01*
X125551600Y-102058400D02*
X125551600Y-99462000D01*
X125724700Y-102231500D02*
X125551600Y-102058400D01*
X128486300Y-102231500D02*
X125724700Y-102231500D01*
X112426400Y-97852000D02*
X112426400Y-98125600D01*
%TO.N,/RX*%
X139379200Y-118276200D02*
X139379200Y-128879600D01*
X133594200Y-112491200D02*
X139379200Y-118276200D01*
X128746000Y-112491200D02*
X133594200Y-112491200D01*
X118486300Y-102231500D02*
X128746000Y-112491200D01*
X118486300Y-101356400D02*
X118486300Y-102231500D01*
%TO.N,/TX*%
X116486300Y-101356400D02*
X116486300Y-102231500D01*
X117033200Y-102231500D02*
X116486300Y-102231500D01*
X129467100Y-114665400D02*
X117033200Y-102231500D01*
X129467100Y-118462000D02*
X129467100Y-114665400D01*
X137379200Y-126374100D02*
X129467100Y-118462000D01*
X137379200Y-128879600D02*
X137379200Y-126374100D01*
%TO.N,/GPIO5*%
X108792300Y-99081300D02*
X120486300Y-99081300D01*
X107543900Y-100329700D02*
X108792300Y-99081300D01*
X107543900Y-101228900D02*
X107543900Y-100329700D01*
X95351700Y-113421100D02*
X107543900Y-101228900D01*
X95004800Y-113421100D02*
X95351700Y-113421100D01*
X95004800Y-114346200D02*
X95004800Y-113421100D01*
X120486300Y-101356400D02*
X120486300Y-99081300D01*
%TO.N,/GPIO4*%
X122001500Y-98596500D02*
X122486300Y-99081300D01*
X104711200Y-98596500D02*
X122001500Y-98596500D01*
X102466700Y-100841000D02*
X104711200Y-98596500D01*
X102466700Y-103198900D02*
X102466700Y-100841000D01*
X93768300Y-111897300D02*
X102466700Y-103198900D01*
X93768300Y-114762800D02*
X93768300Y-111897300D01*
X94426600Y-115421100D02*
X93768300Y-114762800D01*
X95004800Y-115421100D02*
X94426600Y-115421100D01*
X95004800Y-116346200D02*
X95004800Y-115421100D01*
X122486300Y-101356400D02*
X122486300Y-99081300D01*
%TO.N,VBUS*%
X126015200Y-122440700D02*
X132454100Y-128879600D01*
X115735900Y-122440700D02*
X126015200Y-122440700D01*
X112969200Y-119674000D02*
X115735900Y-122440700D01*
X133379200Y-128879600D02*
X132454100Y-128879600D01*
%TO.N,/GPIO0*%
X124486300Y-102549900D02*
X124486300Y-101356400D01*
X124540200Y-102603800D02*
X124486300Y-102549900D01*
X124540200Y-104049200D02*
X124540200Y-102603800D01*
X130982200Y-110491200D02*
X124540200Y-104049200D01*
X133583700Y-110491200D02*
X130982200Y-110491200D01*
X143379200Y-120286700D02*
X133583700Y-110491200D01*
X143379200Y-128879600D02*
X143379200Y-120286700D01*
%TO.N,/REST*%
X117598300Y-117631500D02*
X116486300Y-117631500D01*
X119324200Y-119357400D02*
X117598300Y-117631500D01*
X119324200Y-119956800D02*
X119324200Y-119357400D01*
X120724700Y-121357300D02*
X119324200Y-119956800D01*
X129440300Y-121357300D02*
X120724700Y-121357300D01*
X136379200Y-128296200D02*
X129440300Y-121357300D01*
X136379200Y-129473500D02*
X136379200Y-128296200D01*
X136988800Y-130083100D02*
X136379200Y-129473500D01*
X139828800Y-130083100D02*
X136988800Y-130083100D01*
X140454100Y-129457800D02*
X139828800Y-130083100D01*
X140454100Y-128879600D02*
X140454100Y-129457800D01*
X141379200Y-128879600D02*
X140454100Y-128879600D01*
X116486300Y-115356400D02*
X116486300Y-117631500D01*
%TO.N,/GPIO12*%
X124376100Y-112371100D02*
X126486300Y-114481300D01*
X119273500Y-112371100D02*
X124376100Y-112371100D01*
X118396200Y-113248400D02*
X119273500Y-112371100D01*
X118396200Y-113369500D02*
X118396200Y-113248400D01*
X117402700Y-114363000D02*
X118396200Y-113369500D01*
X115897000Y-114363000D02*
X117402700Y-114363000D01*
X114521100Y-115738900D02*
X115897000Y-114363000D01*
X114521100Y-116406600D02*
X114521100Y-115738900D01*
X112581500Y-118346200D02*
X114521100Y-116406600D01*
X95004800Y-118346200D02*
X112581500Y-118346200D01*
X126486300Y-115356400D02*
X126486300Y-114481300D01*
%TO.N,+3.3V*%
X130486300Y-115356400D02*
X130486300Y-114481300D01*
X130192300Y-114187300D02*
X130486300Y-114481300D01*
%TD*%
%TA.AperFunction,Conductor*%
%TO.N,GND*%
G36*
X150806621Y-83459002D02*
G01*
X150853114Y-83512658D01*
X150864500Y-83565000D01*
X150864500Y-131063500D01*
X150844498Y-131131621D01*
X150790842Y-131178114D01*
X150738500Y-131189500D01*
X92611500Y-131189500D01*
X92543379Y-131169498D01*
X92496886Y-131115842D01*
X92485500Y-131063500D01*
X92485500Y-126613543D01*
X93654518Y-126613543D01*
X93676561Y-126704408D01*
X93680468Y-126715696D01*
X93763386Y-126897260D01*
X93769360Y-126907609D01*
X93885139Y-127070198D01*
X93892965Y-127079229D01*
X94037416Y-127216963D01*
X94046819Y-127224357D01*
X94214720Y-127332260D01*
X94225357Y-127337744D01*
X94226874Y-127338351D01*
X94227519Y-127338858D01*
X94230684Y-127340490D01*
X94230370Y-127341100D01*
X94282680Y-127382239D01*
X94305899Y-127449332D01*
X94289160Y-127518327D01*
X94237776Y-127567319D01*
X94221656Y-127574253D01*
X94166918Y-127593407D01*
X94057650Y-127674050D01*
X93977007Y-127783318D01*
X93932154Y-127911501D01*
X93929300Y-127941934D01*
X93929300Y-128750466D01*
X93932154Y-128780899D01*
X93934687Y-128788138D01*
X93950477Y-128833262D01*
X93977007Y-128909082D01*
X94057650Y-129018350D01*
X94166918Y-129098993D01*
X94175833Y-129102113D01*
X94175834Y-129102113D01*
X94287862Y-129141313D01*
X94295101Y-129143846D01*
X94302733Y-129144562D01*
X94302734Y-129144562D01*
X94322598Y-129146425D01*
X94322605Y-129146425D01*
X94325534Y-129146700D01*
X95684066Y-129146700D01*
X95686995Y-129146425D01*
X95687002Y-129146425D01*
X95706866Y-129144562D01*
X95706867Y-129144562D01*
X95714499Y-129143846D01*
X95721738Y-129141313D01*
X95833766Y-129102113D01*
X95833767Y-129102113D01*
X95842682Y-129098993D01*
X95951950Y-129018350D01*
X96032593Y-128909082D01*
X96059124Y-128833262D01*
X96074913Y-128788138D01*
X96077446Y-128780899D01*
X96080300Y-128750466D01*
X96080300Y-128744165D01*
X103555788Y-128744165D01*
X103585414Y-129013418D01*
X103586576Y-129017863D01*
X103586577Y-129017868D01*
X103645868Y-129244658D01*
X103653928Y-129275488D01*
X103655729Y-129279726D01*
X103756972Y-129517970D01*
X103759870Y-129524790D01*
X103762263Y-129528711D01*
X103762266Y-129528717D01*
X103848646Y-129670255D01*
X103900982Y-129756010D01*
X104074255Y-129964220D01*
X104077679Y-129967288D01*
X104077683Y-129967292D01*
X104194456Y-130071921D01*
X104275998Y-130144982D01*
X104365101Y-130203932D01*
X104475379Y-130276891D01*
X104501910Y-130294444D01*
X104631384Y-130355139D01*
X104743007Y-130407466D01*
X104743011Y-130407468D01*
X104747176Y-130409420D01*
X104751580Y-130410745D01*
X104756961Y-130412364D01*
X105006569Y-130487460D01*
X105011126Y-130488131D01*
X105011132Y-130488132D01*
X105269999Y-130526229D01*
X105270004Y-130526229D01*
X105274561Y-130526900D01*
X105477631Y-130526900D01*
X105680156Y-130512077D01*
X105684647Y-130511077D01*
X105684651Y-130511076D01*
X105940061Y-130454181D01*
X105940066Y-130454180D01*
X105944553Y-130453180D01*
X106197558Y-130356414D01*
X106433777Y-130223841D01*
X106445222Y-130215004D01*
X106532610Y-130147525D01*
X106648177Y-130058288D01*
X106836186Y-129863281D01*
X106911795Y-129757600D01*
X106991114Y-129646732D01*
X106993799Y-129642979D01*
X107028446Y-129575590D01*
X107115547Y-129406178D01*
X107115549Y-129406172D01*
X107117656Y-129402075D01*
X107119143Y-129397715D01*
X107119146Y-129397709D01*
X107202156Y-129154387D01*
X107205118Y-129145705D01*
X107206485Y-129138307D01*
X107221014Y-129059645D01*
X107254319Y-128879333D01*
X107262187Y-128664037D01*
X107264044Y-128613237D01*
X107264044Y-128613234D01*
X107264212Y-128608635D01*
X107255490Y-128529369D01*
X109014923Y-128529369D01*
X109045082Y-128829162D01*
X109114931Y-129122261D01*
X109148286Y-129208864D01*
X109221708Y-129399502D01*
X109221712Y-129399510D01*
X109223223Y-129403434D01*
X109368025Y-129667665D01*
X109370518Y-129671049D01*
X109370519Y-129671050D01*
X109540526Y-129901785D01*
X109546754Y-129910238D01*
X109625287Y-129991440D01*
X109753290Y-130123795D01*
X109753295Y-130123799D01*
X109756220Y-130126824D01*
X109879075Y-130223841D01*
X109968481Y-130294444D01*
X109992685Y-130313558D01*
X110251930Y-130467109D01*
X110301508Y-130488132D01*
X110525455Y-130583094D01*
X110525459Y-130583095D01*
X110529328Y-130584736D01*
X110533381Y-130585846D01*
X110533386Y-130585848D01*
X110815864Y-130663227D01*
X110815871Y-130663228D01*
X110819929Y-130664340D01*
X111118547Y-130704500D01*
X111344444Y-130704500D01*
X111346529Y-130704360D01*
X111346542Y-130704360D01*
X111565636Y-130689693D01*
X111569834Y-130689412D01*
X111573962Y-130688573D01*
X111860971Y-130630236D01*
X111860973Y-130630235D01*
X111865103Y-130629396D01*
X111869082Y-130628014D01*
X111869087Y-130628013D01*
X112145746Y-130531946D01*
X112145748Y-130531945D01*
X112149737Y-130530560D01*
X112157313Y-130526732D01*
X112389466Y-130409420D01*
X112418659Y-130394668D01*
X112564660Y-130294444D01*
X112663600Y-130226526D01*
X112663606Y-130226521D01*
X112667069Y-130224144D01*
X112670185Y-130221326D01*
X112670191Y-130221321D01*
X112887408Y-130024859D01*
X112887413Y-130024854D01*
X112890533Y-130022032D01*
X113085065Y-129791939D01*
X113093065Y-129779408D01*
X113244921Y-129541530D01*
X113244925Y-129541523D01*
X113247193Y-129537970D01*
X113254822Y-129521530D01*
X113372251Y-129268478D01*
X113372254Y-129268470D01*
X113374023Y-129264658D01*
X113463293Y-128976879D01*
X113466667Y-128956879D01*
X113512709Y-128683922D01*
X113512710Y-128683917D01*
X113513409Y-128679770D01*
X113514089Y-128659435D01*
X113519106Y-128509369D01*
X125124923Y-128509369D01*
X125155082Y-128809162D01*
X125224931Y-129102261D01*
X125270348Y-129220183D01*
X125331708Y-129379502D01*
X125331712Y-129379510D01*
X125333223Y-129383434D01*
X125478025Y-129647665D01*
X125480518Y-129651049D01*
X125480519Y-129651050D01*
X125609976Y-129826750D01*
X125656754Y-129890238D01*
X125691934Y-129926614D01*
X125863290Y-130103795D01*
X125863295Y-130103799D01*
X125866220Y-130106824D01*
X126102685Y-130293558D01*
X126361930Y-130447109D01*
X126439717Y-130480094D01*
X126635455Y-130563094D01*
X126635459Y-130563095D01*
X126639328Y-130564736D01*
X126643381Y-130565846D01*
X126643386Y-130565848D01*
X126925864Y-130643227D01*
X126925871Y-130643228D01*
X126929929Y-130644340D01*
X127228547Y-130684500D01*
X127454444Y-130684500D01*
X127456529Y-130684360D01*
X127456542Y-130684360D01*
X127675636Y-130669693D01*
X127679834Y-130669412D01*
X127683962Y-130668573D01*
X127970971Y-130610236D01*
X127970973Y-130610235D01*
X127975103Y-130609396D01*
X127979082Y-130608014D01*
X127979087Y-130608013D01*
X128255746Y-130511946D01*
X128255748Y-130511945D01*
X128259737Y-130510560D01*
X128272759Y-130503980D01*
X128524893Y-130376571D01*
X128528659Y-130374668D01*
X128674373Y-130274641D01*
X128773600Y-130206526D01*
X128773606Y-130206521D01*
X128777069Y-130204144D01*
X128780185Y-130201326D01*
X128780191Y-130201321D01*
X128997408Y-130004859D01*
X128997413Y-130004854D01*
X129000533Y-130002032D01*
X129195065Y-129771939D01*
X129197331Y-129768390D01*
X129354921Y-129521530D01*
X129354925Y-129521523D01*
X129357193Y-129517970D01*
X129363619Y-129504122D01*
X129482251Y-129248478D01*
X129482254Y-129248470D01*
X129484023Y-129244658D01*
X129573293Y-128956879D01*
X129577041Y-128934662D01*
X129622709Y-128663922D01*
X129622710Y-128663917D01*
X129623409Y-128659770D01*
X129623550Y-128655564D01*
X129633337Y-128362831D01*
X129633337Y-128362825D01*
X129633477Y-128358631D01*
X129603318Y-128058838D01*
X129533469Y-127765739D01*
X129478626Y-127623342D01*
X129426692Y-127488498D01*
X129426688Y-127488490D01*
X129425177Y-127484566D01*
X129280375Y-127220335D01*
X129273421Y-127210897D01*
X129104139Y-126981145D01*
X129104136Y-126981141D01*
X129101646Y-126977762D01*
X128968787Y-126840387D01*
X128895110Y-126764205D01*
X128895105Y-126764201D01*
X128892180Y-126761176D01*
X128684345Y-126597051D01*
X128659019Y-126577051D01*
X128659018Y-126577050D01*
X128655715Y-126574442D01*
X128396470Y-126420891D01*
X128290732Y-126376054D01*
X128122945Y-126304906D01*
X128122941Y-126304905D01*
X128119072Y-126303264D01*
X128115019Y-126302154D01*
X128115014Y-126302152D01*
X127832536Y-126224773D01*
X127832529Y-126224772D01*
X127828471Y-126223660D01*
X127529853Y-126183500D01*
X127303956Y-126183500D01*
X127301871Y-126183640D01*
X127301858Y-126183640D01*
X127092864Y-126197631D01*
X127078566Y-126198588D01*
X127074439Y-126199427D01*
X127074438Y-126199427D01*
X126787429Y-126257764D01*
X126787427Y-126257765D01*
X126783297Y-126258604D01*
X126779318Y-126259986D01*
X126779313Y-126259987D01*
X126502654Y-126356054D01*
X126498663Y-126357440D01*
X126229741Y-126493332D01*
X126170013Y-126534333D01*
X125984800Y-126661474D01*
X125984794Y-126661479D01*
X125981331Y-126663856D01*
X125978215Y-126666674D01*
X125978209Y-126666679D01*
X125760992Y-126863141D01*
X125760987Y-126863146D01*
X125757867Y-126865968D01*
X125563335Y-127096061D01*
X125561072Y-127099606D01*
X125561069Y-127099610D01*
X125403479Y-127346470D01*
X125403475Y-127346477D01*
X125401207Y-127350030D01*
X125399431Y-127353857D01*
X125399430Y-127353859D01*
X125276149Y-127619522D01*
X125276146Y-127619530D01*
X125274377Y-127623342D01*
X125185107Y-127911121D01*
X125184407Y-127915271D01*
X125184406Y-127915275D01*
X125135825Y-128203287D01*
X125134991Y-128208230D01*
X125134851Y-128212430D01*
X125134850Y-128212436D01*
X125126275Y-128468938D01*
X125124923Y-128509369D01*
X113519106Y-128509369D01*
X113523337Y-128382831D01*
X113523337Y-128382825D01*
X113523477Y-128378631D01*
X113493318Y-128078838D01*
X113423469Y-127785739D01*
X113368626Y-127643342D01*
X113316692Y-127508498D01*
X113316688Y-127508490D01*
X113315177Y-127504566D01*
X113170375Y-127240335D01*
X113155639Y-127220335D01*
X112994139Y-127001145D01*
X112994136Y-127001141D01*
X112991646Y-126997762D01*
X112889868Y-126892524D01*
X112785110Y-126784205D01*
X112785105Y-126784201D01*
X112782180Y-126781176D01*
X112558038Y-126604173D01*
X112549019Y-126597051D01*
X112549018Y-126597050D01*
X112545715Y-126594442D01*
X112286470Y-126440891D01*
X112162462Y-126388307D01*
X112012945Y-126324906D01*
X112012941Y-126324905D01*
X112009072Y-126323264D01*
X112005019Y-126322154D01*
X112005014Y-126322152D01*
X111722536Y-126244773D01*
X111722529Y-126244772D01*
X111718471Y-126243660D01*
X111419853Y-126203500D01*
X111193956Y-126203500D01*
X111191871Y-126203640D01*
X111191858Y-126203640D01*
X110982864Y-126217631D01*
X110968566Y-126218588D01*
X110964439Y-126219427D01*
X110964438Y-126219427D01*
X110677429Y-126277764D01*
X110677427Y-126277765D01*
X110673297Y-126278604D01*
X110669318Y-126279986D01*
X110669313Y-126279987D01*
X110446260Y-126357440D01*
X110388663Y-126377440D01*
X110384892Y-126379346D01*
X110384891Y-126379346D01*
X110367158Y-126388307D01*
X110119741Y-126513332D01*
X110089148Y-126534333D01*
X109874800Y-126681474D01*
X109874794Y-126681479D01*
X109871331Y-126683856D01*
X109868215Y-126686674D01*
X109868209Y-126686679D01*
X109650992Y-126883141D01*
X109650987Y-126883146D01*
X109647867Y-126885968D01*
X109453335Y-127116061D01*
X109451072Y-127119606D01*
X109451069Y-127119610D01*
X109293479Y-127366470D01*
X109293475Y-127366477D01*
X109291207Y-127370030D01*
X109289431Y-127373857D01*
X109289430Y-127373859D01*
X109166149Y-127639522D01*
X109166146Y-127639530D01*
X109164377Y-127643342D01*
X109075107Y-127931121D01*
X109074407Y-127935271D01*
X109074406Y-127935275D01*
X109028365Y-128208230D01*
X109024991Y-128228230D01*
X109024851Y-128232430D01*
X109024850Y-128232436D01*
X109015094Y-128524267D01*
X109014923Y-128529369D01*
X107255490Y-128529369D01*
X107234586Y-128339382D01*
X107229429Y-128319653D01*
X107167237Y-128081768D01*
X107167237Y-128081767D01*
X107166072Y-128077312D01*
X107132122Y-127997422D01*
X107061930Y-127832245D01*
X107061928Y-127832241D01*
X107060130Y-127828010D01*
X107057737Y-127824089D01*
X107057734Y-127824083D01*
X106937675Y-127627360D01*
X106919018Y-127596790D01*
X106745745Y-127388580D01*
X106742321Y-127385512D01*
X106742317Y-127385508D01*
X106576515Y-127236950D01*
X106544002Y-127207818D01*
X106421406Y-127126709D01*
X106321925Y-127060893D01*
X106321923Y-127060892D01*
X106318090Y-127058356D01*
X106153384Y-126981145D01*
X106076993Y-126945334D01*
X106076989Y-126945332D01*
X106072824Y-126943380D01*
X105813431Y-126865340D01*
X105808874Y-126864669D01*
X105808868Y-126864668D01*
X105550001Y-126826571D01*
X105549996Y-126826571D01*
X105545439Y-126825900D01*
X105342369Y-126825900D01*
X105139844Y-126840723D01*
X105135353Y-126841723D01*
X105135349Y-126841724D01*
X104879939Y-126898619D01*
X104879934Y-126898620D01*
X104875447Y-126899620D01*
X104622442Y-126996386D01*
X104386223Y-127128959D01*
X104171823Y-127294512D01*
X103983814Y-127489519D01*
X103981132Y-127493268D01*
X103981131Y-127493269D01*
X103870888Y-127647360D01*
X103826201Y-127709821D01*
X103824092Y-127713923D01*
X103705346Y-127944887D01*
X103702344Y-127950725D01*
X103700857Y-127955085D01*
X103700854Y-127955091D01*
X103654993Y-128089520D01*
X103614882Y-128207095D01*
X103614045Y-128211629D01*
X103614044Y-128211631D01*
X103607126Y-128249086D01*
X103565681Y-128473467D01*
X103562510Y-128560221D01*
X103557688Y-128692186D01*
X103555788Y-128744165D01*
X96080300Y-128744165D01*
X96080300Y-127941934D01*
X96077446Y-127911501D01*
X96032593Y-127783318D01*
X95951950Y-127674050D01*
X95842682Y-127593407D01*
X95783075Y-127572550D01*
X95725386Y-127531173D01*
X95699224Y-127465173D01*
X95712896Y-127395506D01*
X95766956Y-127341629D01*
X95876216Y-127285301D01*
X95886275Y-127278837D01*
X96043172Y-127155452D01*
X96051814Y-127147212D01*
X96182523Y-126996366D01*
X96189459Y-126986626D01*
X96289254Y-126813776D01*
X96294222Y-126802897D01*
X96359500Y-126614285D01*
X96359527Y-126614175D01*
X96358089Y-126604173D01*
X96344557Y-126600200D01*
X93669396Y-126600200D01*
X93655865Y-126604173D01*
X93654518Y-126613543D01*
X92485500Y-126613543D01*
X92485500Y-126078225D01*
X93650073Y-126078225D01*
X93651511Y-126088227D01*
X93665043Y-126092200D01*
X96340204Y-126092200D01*
X96353735Y-126088227D01*
X96355082Y-126078857D01*
X96333039Y-125987992D01*
X96329132Y-125976704D01*
X96246214Y-125795140D01*
X96240240Y-125784791D01*
X96124461Y-125622202D01*
X96116635Y-125613171D01*
X95972184Y-125475437D01*
X95962781Y-125468043D01*
X95794880Y-125360140D01*
X95784246Y-125354658D01*
X95643774Y-125298421D01*
X95587967Y-125254534D01*
X95564747Y-125187442D01*
X95581485Y-125118447D01*
X95630144Y-125073297D01*
X95629322Y-125071989D01*
X95776067Y-124979783D01*
X95776068Y-124979783D01*
X95782062Y-124976016D01*
X95909616Y-124848462D01*
X96005589Y-124695722D01*
X96065168Y-124525455D01*
X96085365Y-124346200D01*
X96065168Y-124166945D01*
X96005589Y-123996678D01*
X95909616Y-123843938D01*
X95782062Y-123716384D01*
X95629322Y-123620411D01*
X95459055Y-123560832D01*
X95452028Y-123560040D01*
X95452027Y-123560040D01*
X95412344Y-123555569D01*
X95324754Y-123545700D01*
X94684846Y-123545700D01*
X94597256Y-123555569D01*
X94557573Y-123560040D01*
X94557572Y-123560040D01*
X94550545Y-123560832D01*
X94380278Y-123620411D01*
X94227538Y-123716384D01*
X94099984Y-123843938D01*
X94004011Y-123996678D01*
X93944432Y-124166945D01*
X93924235Y-124346200D01*
X93944432Y-124525455D01*
X94004011Y-124695722D01*
X94099984Y-124848462D01*
X94227538Y-124976016D01*
X94233532Y-124979783D01*
X94233533Y-124979783D01*
X94380278Y-125071989D01*
X94379358Y-125073454D01*
X94425437Y-125115063D01*
X94444041Y-125183579D01*
X94422649Y-125251276D01*
X94368053Y-125296661D01*
X94353564Y-125301896D01*
X94321892Y-125311195D01*
X94310785Y-125315642D01*
X94133384Y-125407099D01*
X94123325Y-125413563D01*
X93966428Y-125536948D01*
X93957786Y-125545188D01*
X93827077Y-125696034D01*
X93820141Y-125705774D01*
X93720346Y-125878624D01*
X93715378Y-125889503D01*
X93650100Y-126078115D01*
X93650073Y-126078225D01*
X92485500Y-126078225D01*
X92485500Y-122346200D01*
X93924235Y-122346200D01*
X93944432Y-122525455D01*
X94004011Y-122695722D01*
X94007776Y-122701714D01*
X94014704Y-122712739D01*
X94099984Y-122848462D01*
X94227538Y-122976016D01*
X94380278Y-123071989D01*
X94550545Y-123131568D01*
X94557572Y-123132360D01*
X94557573Y-123132360D01*
X94597256Y-123136831D01*
X94684846Y-123146700D01*
X95324754Y-123146700D01*
X95412344Y-123136831D01*
X95452027Y-123132360D01*
X95452028Y-123132360D01*
X95459055Y-123131568D01*
X95629322Y-123071989D01*
X95782062Y-122976016D01*
X95909616Y-122848462D01*
X95994897Y-122712739D01*
X96001824Y-122701714D01*
X96005589Y-122695722D01*
X96065168Y-122525455D01*
X96085365Y-122346200D01*
X96067485Y-122187506D01*
X96065960Y-122173973D01*
X96065960Y-122173972D01*
X96065168Y-122166945D01*
X96005589Y-121996678D01*
X95909616Y-121843938D01*
X95782062Y-121716384D01*
X95760447Y-121702802D01*
X95635314Y-121624176D01*
X95629322Y-121620411D01*
X95459055Y-121560832D01*
X95452028Y-121560040D01*
X95452027Y-121560040D01*
X95412344Y-121555569D01*
X95324754Y-121545700D01*
X94684846Y-121545700D01*
X94597256Y-121555569D01*
X94557573Y-121560040D01*
X94557572Y-121560040D01*
X94550545Y-121560832D01*
X94380278Y-121620411D01*
X94374286Y-121624176D01*
X94249154Y-121702802D01*
X94227538Y-121716384D01*
X94099984Y-121843938D01*
X94004011Y-121996678D01*
X93944432Y-122166945D01*
X93943640Y-122173972D01*
X93943640Y-122173973D01*
X93942115Y-122187506D01*
X93924235Y-122346200D01*
X92485500Y-122346200D01*
X92485500Y-118320507D01*
X92970036Y-118320507D01*
X92972890Y-118331156D01*
X92979791Y-118356910D01*
X92982170Y-118367642D01*
X92988712Y-118404745D01*
X92994223Y-118414290D01*
X92995415Y-118417566D01*
X92996892Y-118420734D01*
X92999746Y-118431384D01*
X93006070Y-118440415D01*
X93021355Y-118462244D01*
X93027261Y-118471515D01*
X93032056Y-118479820D01*
X93046106Y-118504155D01*
X93067722Y-118522293D01*
X93074982Y-118528385D01*
X93083085Y-118535811D01*
X94156503Y-119609229D01*
X94190529Y-119671541D01*
X94185464Y-119742356D01*
X94156503Y-119787419D01*
X94099984Y-119843938D01*
X94004011Y-119996678D01*
X93944432Y-120166945D01*
X93943640Y-120173972D01*
X93943640Y-120173973D01*
X93932947Y-120268880D01*
X93924235Y-120346200D01*
X93944432Y-120525455D01*
X94004011Y-120695722D01*
X94099984Y-120848462D01*
X94227538Y-120976016D01*
X94380278Y-121071989D01*
X94550545Y-121131568D01*
X94557572Y-121132360D01*
X94557573Y-121132360D01*
X94597256Y-121136831D01*
X94684846Y-121146700D01*
X95324754Y-121146700D01*
X95412344Y-121136831D01*
X95452027Y-121132360D01*
X95452028Y-121132360D01*
X95459055Y-121131568D01*
X95629322Y-121071989D01*
X95782062Y-120976016D01*
X95909616Y-120848462D01*
X96005589Y-120695722D01*
X96065168Y-120525455D01*
X96085365Y-120346200D01*
X96076653Y-120268880D01*
X96065960Y-120173973D01*
X96065960Y-120173972D01*
X96065168Y-120166945D01*
X96005589Y-119996678D01*
X95909616Y-119843938D01*
X95782062Y-119716384D01*
X95629322Y-119620411D01*
X95459055Y-119560832D01*
X95452030Y-119560041D01*
X95452028Y-119560040D01*
X95442192Y-119558932D01*
X95376739Y-119531428D01*
X95336546Y-119472904D01*
X95330300Y-119433724D01*
X95330300Y-119363706D01*
X95324178Y-119346886D01*
X95318495Y-119325676D01*
X95317459Y-119319803D01*
X95315388Y-119308055D01*
X95311957Y-119302113D01*
X95307618Y-119233820D01*
X95342137Y-119171780D01*
X95404717Y-119138251D01*
X95416411Y-119136373D01*
X95438722Y-119133859D01*
X95452027Y-119132360D01*
X95452028Y-119132360D01*
X95459055Y-119131568D01*
X95629322Y-119071989D01*
X95752015Y-118994896D01*
X95776067Y-118979783D01*
X95776068Y-118979783D01*
X95782062Y-118976016D01*
X95909616Y-118848462D01*
X95983634Y-118730663D01*
X96036811Y-118683626D01*
X96090320Y-118671700D01*
X112321162Y-118671700D01*
X112389283Y-118691702D01*
X112435776Y-118745358D01*
X112445880Y-118815632D01*
X112416386Y-118880212D01*
X112401098Y-118895097D01*
X112285317Y-118990117D01*
X112165038Y-119136676D01*
X112162121Y-119142134D01*
X112162120Y-119142135D01*
X112145179Y-119173830D01*
X112075663Y-119303885D01*
X112069053Y-119325676D01*
X112022424Y-119479391D01*
X112022423Y-119479397D01*
X112020627Y-119485317D01*
X112002043Y-119674000D01*
X112020627Y-119862683D01*
X112022423Y-119868603D01*
X112022424Y-119868609D01*
X112032156Y-119900691D01*
X112075663Y-120044115D01*
X112126417Y-120139069D01*
X112144904Y-120173655D01*
X112165038Y-120211324D01*
X112285317Y-120357883D01*
X112431876Y-120478162D01*
X112437334Y-120481079D01*
X112437335Y-120481080D01*
X112450585Y-120488162D01*
X112599085Y-120567537D01*
X112643771Y-120581092D01*
X112774591Y-120620776D01*
X112774597Y-120620777D01*
X112780517Y-120622573D01*
X112969200Y-120641157D01*
X113157883Y-120622573D01*
X113306349Y-120577537D01*
X113315458Y-120574774D01*
X113386452Y-120574141D01*
X113441128Y-120606254D01*
X115491789Y-122656915D01*
X115499216Y-122665019D01*
X115523445Y-122693894D01*
X115532994Y-122699407D01*
X115556085Y-122712739D01*
X115565356Y-122718645D01*
X115596216Y-122740254D01*
X115606866Y-122743108D01*
X115610034Y-122744585D01*
X115613310Y-122745777D01*
X115622855Y-122751288D01*
X115656599Y-122757238D01*
X115659958Y-122757830D01*
X115670685Y-122760208D01*
X115707093Y-122769964D01*
X115718069Y-122769004D01*
X115718072Y-122769004D01*
X115744643Y-122766679D01*
X115755624Y-122766200D01*
X125828184Y-122766200D01*
X125896305Y-122786202D01*
X125917279Y-122803105D01*
X132209989Y-129095815D01*
X132217416Y-129103919D01*
X132241645Y-129132794D01*
X132251194Y-129138307D01*
X132274285Y-129151639D01*
X132283556Y-129157545D01*
X132314416Y-129179154D01*
X132325066Y-129182008D01*
X132328234Y-129183485D01*
X132331510Y-129184677D01*
X132341055Y-129190188D01*
X132374799Y-129196138D01*
X132378158Y-129196730D01*
X132388885Y-129199108D01*
X132425293Y-129208864D01*
X132455812Y-129206194D01*
X132525416Y-129220183D01*
X132576409Y-129269583D01*
X132592000Y-129317604D01*
X132592477Y-129321832D01*
X132593832Y-129333855D01*
X132653411Y-129504122D01*
X132657176Y-129510114D01*
X132731740Y-129628781D01*
X132749384Y-129656862D01*
X132876938Y-129784416D01*
X132882932Y-129788183D01*
X132882933Y-129788183D01*
X132944312Y-129826750D01*
X133029678Y-129880389D01*
X133199945Y-129939968D01*
X133206972Y-129940760D01*
X133206973Y-129940760D01*
X133372171Y-129959373D01*
X133379200Y-129960165D01*
X133386229Y-129959373D01*
X133551427Y-129940760D01*
X133551428Y-129940760D01*
X133558455Y-129939968D01*
X133728722Y-129880389D01*
X133814088Y-129826750D01*
X133875467Y-129788183D01*
X133875468Y-129788183D01*
X133881462Y-129784416D01*
X134009016Y-129656862D01*
X134026661Y-129628781D01*
X134104989Y-129504122D01*
X134106454Y-129505042D01*
X134148063Y-129458963D01*
X134216579Y-129440359D01*
X134284276Y-129461751D01*
X134329661Y-129516347D01*
X134334896Y-129530836D01*
X134344195Y-129562508D01*
X134348642Y-129573615D01*
X134440099Y-129751016D01*
X134446563Y-129761075D01*
X134569948Y-129917972D01*
X134578188Y-129926614D01*
X134729034Y-130057323D01*
X134738774Y-130064259D01*
X134911624Y-130164054D01*
X134922503Y-130169022D01*
X135111115Y-130234300D01*
X135111225Y-130234327D01*
X135121227Y-130232889D01*
X135125200Y-130219357D01*
X135125200Y-128751600D01*
X135145202Y-128683479D01*
X135198858Y-128636986D01*
X135251200Y-128625600D01*
X135507200Y-128625600D01*
X135575321Y-128645602D01*
X135621814Y-128699258D01*
X135633200Y-128751600D01*
X135633200Y-130215004D01*
X135637173Y-130228535D01*
X135646543Y-130229882D01*
X135737408Y-130207839D01*
X135748696Y-130203932D01*
X135930260Y-130121014D01*
X135940609Y-130115040D01*
X136103198Y-129999261D01*
X136112223Y-129991440D01*
X136181611Y-129918668D01*
X136243096Y-129883170D01*
X136314012Y-129886548D01*
X136361897Y-129916523D01*
X136744689Y-130299315D01*
X136752115Y-130307418D01*
X136776345Y-130336294D01*
X136785894Y-130341807D01*
X136808985Y-130355139D01*
X136818256Y-130361045D01*
X136849116Y-130382654D01*
X136859766Y-130385508D01*
X136862934Y-130386985D01*
X136866210Y-130388177D01*
X136875755Y-130393688D01*
X136909499Y-130399638D01*
X136912858Y-130400230D01*
X136923585Y-130402608D01*
X136959993Y-130412364D01*
X136970969Y-130411404D01*
X136970972Y-130411404D01*
X136997543Y-130409079D01*
X137008524Y-130408600D01*
X139809090Y-130408600D01*
X139820072Y-130409080D01*
X139846620Y-130411403D01*
X139846622Y-130411403D01*
X139857607Y-130412364D01*
X139894015Y-130402608D01*
X139904742Y-130400230D01*
X139908101Y-130399638D01*
X139941845Y-130393688D01*
X139951390Y-130388177D01*
X139954666Y-130386985D01*
X139957834Y-130385508D01*
X139968484Y-130382654D01*
X139999344Y-130361045D01*
X140008615Y-130355139D01*
X140031706Y-130341807D01*
X140041255Y-130336294D01*
X140065485Y-130307417D01*
X140072911Y-130299315D01*
X140643279Y-129728947D01*
X140705591Y-129694921D01*
X140776406Y-129699986D01*
X140821469Y-129728947D01*
X140876938Y-129784416D01*
X140882932Y-129788183D01*
X140882933Y-129788183D01*
X140944312Y-129826750D01*
X141029678Y-129880389D01*
X141199945Y-129939968D01*
X141206972Y-129940760D01*
X141206973Y-129940760D01*
X141372171Y-129959373D01*
X141379200Y-129960165D01*
X141386229Y-129959373D01*
X141551427Y-129940760D01*
X141551428Y-129940760D01*
X141558455Y-129939968D01*
X141728722Y-129880389D01*
X141814088Y-129826750D01*
X141875467Y-129788183D01*
X141875468Y-129788183D01*
X141881462Y-129784416D01*
X142009016Y-129656862D01*
X142026661Y-129628781D01*
X142101224Y-129510114D01*
X142104989Y-129504122D01*
X142164568Y-129333855D01*
X142179700Y-129199554D01*
X142179700Y-128559646D01*
X142164568Y-128425345D01*
X142104989Y-128255078D01*
X142022548Y-128123874D01*
X142012783Y-128108333D01*
X142012783Y-128108332D01*
X142009016Y-128102338D01*
X141881462Y-127974784D01*
X141836643Y-127946622D01*
X141734714Y-127882576D01*
X141728722Y-127878811D01*
X141558455Y-127819232D01*
X141551428Y-127818440D01*
X141551427Y-127818440D01*
X141386229Y-127799827D01*
X141379200Y-127799035D01*
X141372171Y-127799827D01*
X141206973Y-127818440D01*
X141206972Y-127818440D01*
X141199945Y-127819232D01*
X141029678Y-127878811D01*
X141023686Y-127882576D01*
X140921758Y-127946622D01*
X140876938Y-127974784D01*
X140749384Y-128102338D01*
X140745617Y-128108332D01*
X140745617Y-128108333D01*
X140735852Y-128123874D01*
X140653411Y-128255078D01*
X140593832Y-128425345D01*
X140593041Y-128432370D01*
X140593040Y-128432372D01*
X140591932Y-128442208D01*
X140564428Y-128507661D01*
X140505904Y-128547854D01*
X140466724Y-128554100D01*
X140396706Y-128554100D01*
X140379886Y-128560222D01*
X140358676Y-128565905D01*
X140341055Y-128569012D01*
X140335113Y-128572443D01*
X140266820Y-128576782D01*
X140204780Y-128542263D01*
X140171251Y-128479683D01*
X140169372Y-128467984D01*
X140165360Y-128432373D01*
X140165360Y-128432372D01*
X140164568Y-128425345D01*
X140104989Y-128255078D01*
X140022548Y-128123874D01*
X140012783Y-128108333D01*
X140012783Y-128108332D01*
X140009016Y-128102338D01*
X139881462Y-127974784D01*
X139763663Y-127900766D01*
X139716626Y-127847589D01*
X139704700Y-127794080D01*
X139704700Y-118295898D01*
X139705180Y-118284916D01*
X139707502Y-118258380D01*
X139707502Y-118258378D01*
X139708463Y-118247393D01*
X139698712Y-118211003D01*
X139696332Y-118200269D01*
X139691702Y-118174012D01*
X139689788Y-118163155D01*
X139684276Y-118153607D01*
X139683083Y-118150330D01*
X139681606Y-118147162D01*
X139678753Y-118136516D01*
X139657142Y-118105652D01*
X139651238Y-118096384D01*
X139647882Y-118090571D01*
X139632394Y-118063745D01*
X139603531Y-118039526D01*
X139595427Y-118032100D01*
X133838310Y-112274984D01*
X133830883Y-112266880D01*
X133813741Y-112246451D01*
X133813742Y-112246451D01*
X133806655Y-112238006D01*
X133797106Y-112232493D01*
X133774015Y-112219161D01*
X133764744Y-112213255D01*
X133742915Y-112197970D01*
X133733884Y-112191646D01*
X133723232Y-112188792D01*
X133720076Y-112187320D01*
X133716796Y-112186126D01*
X133707245Y-112180612D01*
X133696384Y-112178697D01*
X133689650Y-112176246D01*
X133632479Y-112134152D01*
X133607140Y-112067830D01*
X133616335Y-112009626D01*
X133618272Y-112004951D01*
X133625167Y-111994631D01*
X133636800Y-111936148D01*
X133636800Y-111308816D01*
X133656802Y-111240695D01*
X133710458Y-111194202D01*
X133780732Y-111184098D01*
X133845312Y-111213592D01*
X133851895Y-111219721D01*
X143016795Y-120384621D01*
X143050821Y-120446933D01*
X143053700Y-120473716D01*
X143053700Y-127682604D01*
X143033698Y-127750725D01*
X142980042Y-127797218D01*
X142954592Y-127805701D01*
X142952132Y-127806238D01*
X142944501Y-127806954D01*
X142937262Y-127809487D01*
X142902734Y-127821569D01*
X142816318Y-127851807D01*
X142707050Y-127932450D01*
X142626407Y-128041718D01*
X142623287Y-128050633D01*
X142623287Y-128050634D01*
X142594617Y-128132568D01*
X142581554Y-128169901D01*
X142580838Y-128177533D01*
X142580838Y-128177534D01*
X142579284Y-128194110D01*
X142578700Y-128200334D01*
X142578700Y-129558866D01*
X142578975Y-129561795D01*
X142578975Y-129561802D01*
X142580838Y-129581666D01*
X142581554Y-129589299D01*
X142584087Y-129596538D01*
X142618513Y-129694921D01*
X142626407Y-129717482D01*
X142707050Y-129826750D01*
X142816318Y-129907393D01*
X142825233Y-129910513D01*
X142825234Y-129910513D01*
X142909412Y-129939968D01*
X142944501Y-129952246D01*
X142952133Y-129952962D01*
X142952134Y-129952962D01*
X142971998Y-129954825D01*
X142972005Y-129954825D01*
X142974934Y-129955100D01*
X143783466Y-129955100D01*
X143786395Y-129954825D01*
X143786402Y-129954825D01*
X143806266Y-129952962D01*
X143806267Y-129952962D01*
X143813899Y-129952246D01*
X143848988Y-129939968D01*
X143933166Y-129910513D01*
X143933167Y-129910513D01*
X143942082Y-129907393D01*
X144051350Y-129826750D01*
X144131993Y-129717482D01*
X144139888Y-129694921D01*
X144174313Y-129596538D01*
X144176846Y-129589299D01*
X144177562Y-129581666D01*
X144179425Y-129561802D01*
X144179425Y-129561795D01*
X144179700Y-129558866D01*
X144179700Y-128794965D01*
X146532588Y-128794965D01*
X146562214Y-129064218D01*
X146563376Y-129068663D01*
X146563377Y-129068668D01*
X146615903Y-129269583D01*
X146630728Y-129326288D01*
X146644712Y-129359194D01*
X146731111Y-129562508D01*
X146736670Y-129575590D01*
X146739063Y-129579511D01*
X146739066Y-129579517D01*
X146812588Y-129699986D01*
X146877782Y-129806810D01*
X147051055Y-130015020D01*
X147054479Y-130018088D01*
X147054483Y-130018092D01*
X147106009Y-130064259D01*
X147252798Y-130195782D01*
X147256642Y-130198325D01*
X147430817Y-130313558D01*
X147478710Y-130345244D01*
X147610904Y-130407214D01*
X147719807Y-130458266D01*
X147719811Y-130458268D01*
X147723976Y-130460220D01*
X147983369Y-130538260D01*
X147987926Y-130538931D01*
X147987932Y-130538932D01*
X148246799Y-130577029D01*
X148246804Y-130577029D01*
X148251361Y-130577700D01*
X148454431Y-130577700D01*
X148656956Y-130562877D01*
X148661447Y-130561877D01*
X148661451Y-130561876D01*
X148916861Y-130504981D01*
X148916866Y-130504980D01*
X148921353Y-130503980D01*
X149174358Y-130407214D01*
X149410577Y-130274641D01*
X149624977Y-130109088D01*
X149812986Y-129914081D01*
X149815736Y-129910238D01*
X149967914Y-129697532D01*
X149970599Y-129693779D01*
X149982285Y-129671050D01*
X150092347Y-129456978D01*
X150092349Y-129456972D01*
X150094456Y-129452875D01*
X150095943Y-129448515D01*
X150095946Y-129448509D01*
X150177702Y-129208864D01*
X150181918Y-129196505D01*
X150231119Y-128930133D01*
X150237793Y-128747513D01*
X150240844Y-128664037D01*
X150240844Y-128664034D01*
X150241012Y-128659435D01*
X150211386Y-128390182D01*
X150209465Y-128382831D01*
X150144037Y-128132568D01*
X150144037Y-128132567D01*
X150142872Y-128128112D01*
X150121284Y-128077312D01*
X150038730Y-127883045D01*
X150038728Y-127883041D01*
X150036930Y-127878810D01*
X150034537Y-127874889D01*
X150034534Y-127874883D01*
X149898209Y-127651508D01*
X149895818Y-127647590D01*
X149722545Y-127439380D01*
X149719121Y-127436312D01*
X149719117Y-127436308D01*
X149560862Y-127294512D01*
X149520802Y-127258618D01*
X149398206Y-127177509D01*
X149298725Y-127111693D01*
X149298723Y-127111692D01*
X149294890Y-127109156D01*
X149064482Y-127001145D01*
X149053793Y-126996134D01*
X149053789Y-126996132D01*
X149049624Y-126994180D01*
X148790231Y-126916140D01*
X148785674Y-126915469D01*
X148785668Y-126915468D01*
X148526801Y-126877371D01*
X148526796Y-126877371D01*
X148522239Y-126876700D01*
X148319169Y-126876700D01*
X148116644Y-126891523D01*
X148112153Y-126892523D01*
X148112149Y-126892524D01*
X147856739Y-126949419D01*
X147856734Y-126949420D01*
X147852247Y-126950420D01*
X147599242Y-127047186D01*
X147363023Y-127179759D01*
X147359389Y-127182565D01*
X147359386Y-127182567D01*
X147314842Y-127216963D01*
X147148623Y-127345312D01*
X146960614Y-127540319D01*
X146957932Y-127544068D01*
X146957931Y-127544069D01*
X146842030Y-127706068D01*
X146803001Y-127760621D01*
X146800892Y-127764723D01*
X146690318Y-127979792D01*
X146679144Y-128001525D01*
X146677657Y-128005885D01*
X146677654Y-128005891D01*
X146646234Y-128097991D01*
X146591682Y-128257895D01*
X146542481Y-128524267D01*
X146538778Y-128625600D01*
X146532838Y-128788138D01*
X146532588Y-128794965D01*
X144179700Y-128794965D01*
X144179700Y-128200334D01*
X144179117Y-128194110D01*
X144177562Y-128177534D01*
X144177562Y-128177533D01*
X144176846Y-128169901D01*
X144163783Y-128132568D01*
X144135113Y-128050634D01*
X144135113Y-128050633D01*
X144131993Y-128041718D01*
X144051350Y-127932450D01*
X143942082Y-127851807D01*
X143855667Y-127821569D01*
X143821138Y-127809487D01*
X143813899Y-127806954D01*
X143806268Y-127806238D01*
X143803808Y-127805701D01*
X143741526Y-127771620D01*
X143707556Y-127709278D01*
X143704700Y-127682604D01*
X143704700Y-120306410D01*
X143705180Y-120295428D01*
X143707503Y-120268880D01*
X143707503Y-120268878D01*
X143708464Y-120257893D01*
X143698708Y-120221485D01*
X143696330Y-120210758D01*
X143695042Y-120203454D01*
X143689788Y-120173655D01*
X143684277Y-120164110D01*
X143683085Y-120160834D01*
X143681608Y-120157666D01*
X143678754Y-120147016D01*
X143657145Y-120116156D01*
X143651239Y-120106885D01*
X143637907Y-120083794D01*
X143632394Y-120074245D01*
X143603517Y-120050015D01*
X143595415Y-120042589D01*
X133827811Y-110274985D01*
X133820384Y-110266881D01*
X133803241Y-110246451D01*
X133803242Y-110246451D01*
X133796155Y-110238006D01*
X133786606Y-110232493D01*
X133763515Y-110219161D01*
X133754244Y-110213255D01*
X133732415Y-110197970D01*
X133723384Y-110191646D01*
X133712734Y-110188792D01*
X133709566Y-110187315D01*
X133706289Y-110186122D01*
X133696745Y-110180612D01*
X133687476Y-110178978D01*
X133631103Y-110137472D01*
X133605765Y-110071151D01*
X133614960Y-110012948D01*
X133618274Y-110004946D01*
X133625167Y-109994631D01*
X133636800Y-109936148D01*
X133636800Y-108796652D01*
X133629986Y-108762395D01*
X133627588Y-108750339D01*
X133627588Y-108750338D01*
X133625167Y-108738169D01*
X133580852Y-108671848D01*
X133514531Y-108627533D01*
X133502362Y-108625112D01*
X133502361Y-108625112D01*
X133462116Y-108617107D01*
X133456048Y-108615900D01*
X130916552Y-108615900D01*
X130910484Y-108617107D01*
X130870239Y-108625112D01*
X130870238Y-108625112D01*
X130858069Y-108627533D01*
X130791748Y-108671848D01*
X130747433Y-108738169D01*
X130745012Y-108750338D01*
X130745012Y-108750339D01*
X130742614Y-108762395D01*
X130735800Y-108796652D01*
X130735800Y-109480284D01*
X130715798Y-109548405D01*
X130662142Y-109594898D01*
X130591868Y-109605002D01*
X130527288Y-109575508D01*
X130520705Y-109569379D01*
X128887474Y-107936148D01*
X130735800Y-107936148D01*
X130747433Y-107994631D01*
X130791748Y-108060952D01*
X130858069Y-108105267D01*
X130870238Y-108107688D01*
X130870239Y-108107688D01*
X130910484Y-108115693D01*
X130916552Y-108116900D01*
X133456048Y-108116900D01*
X133462116Y-108115693D01*
X133502361Y-108107688D01*
X133502362Y-108107688D01*
X133514531Y-108105267D01*
X133580852Y-108060952D01*
X133625167Y-107994631D01*
X133636800Y-107936148D01*
X133636800Y-106796652D01*
X133625167Y-106738169D01*
X133580852Y-106671848D01*
X133514531Y-106627533D01*
X133502362Y-106625112D01*
X133502361Y-106625112D01*
X133462116Y-106617107D01*
X133456048Y-106615900D01*
X130916552Y-106615900D01*
X130910484Y-106617107D01*
X130870239Y-106625112D01*
X130870238Y-106625112D01*
X130858069Y-106627533D01*
X130791748Y-106671848D01*
X130747433Y-106738169D01*
X130735800Y-106796652D01*
X130735800Y-107936148D01*
X128887474Y-107936148D01*
X126887474Y-105936148D01*
X130735800Y-105936148D01*
X130747433Y-105994631D01*
X130791748Y-106060952D01*
X130858069Y-106105267D01*
X130870238Y-106107688D01*
X130870239Y-106107688D01*
X130910484Y-106115693D01*
X130916552Y-106116900D01*
X133456048Y-106116900D01*
X133462116Y-106115693D01*
X133502361Y-106107688D01*
X133502362Y-106107688D01*
X133514531Y-106105267D01*
X133580852Y-106060952D01*
X133625167Y-105994631D01*
X133636800Y-105936148D01*
X133636800Y-104796652D01*
X133625167Y-104738169D01*
X133580852Y-104671848D01*
X133514531Y-104627533D01*
X133502362Y-104625112D01*
X133502361Y-104625112D01*
X133462116Y-104617107D01*
X133456048Y-104615900D01*
X130916552Y-104615900D01*
X130910484Y-104617107D01*
X130870239Y-104625112D01*
X130870238Y-104625112D01*
X130858069Y-104627533D01*
X130791748Y-104671848D01*
X130747433Y-104738169D01*
X130735800Y-104796652D01*
X130735800Y-105936148D01*
X126887474Y-105936148D01*
X124902605Y-103951279D01*
X124894343Y-103936148D01*
X130735800Y-103936148D01*
X130747433Y-103994631D01*
X130754326Y-104004947D01*
X130770437Y-104029058D01*
X130791748Y-104060952D01*
X130858069Y-104105267D01*
X130870238Y-104107688D01*
X130870239Y-104107688D01*
X130904034Y-104114410D01*
X130916552Y-104116900D01*
X133456048Y-104116900D01*
X133468566Y-104114410D01*
X133502361Y-104107688D01*
X133502362Y-104107688D01*
X133514531Y-104105267D01*
X133580852Y-104060952D01*
X133602163Y-104029058D01*
X133618274Y-104004947D01*
X133625167Y-103994631D01*
X133636800Y-103936148D01*
X133636800Y-102796652D01*
X133625167Y-102738169D01*
X133580852Y-102671848D01*
X133514531Y-102627533D01*
X133502362Y-102625112D01*
X133502361Y-102625112D01*
X133462116Y-102617107D01*
X133456048Y-102615900D01*
X131286083Y-102615900D01*
X131217962Y-102595898D01*
X131171469Y-102542242D01*
X131161365Y-102471968D01*
X131190859Y-102407388D01*
X131242050Y-102371844D01*
X131273822Y-102359994D01*
X131289476Y-102351446D01*
X131391993Y-102274702D01*
X131404602Y-102262093D01*
X131481346Y-102159576D01*
X131489895Y-102143920D01*
X131535041Y-102022878D01*
X131538638Y-102007657D01*
X131543940Y-101958338D01*
X131544300Y-101951623D01*
X131544300Y-100928515D01*
X131539825Y-100913276D01*
X131538435Y-100912071D01*
X131530752Y-100910400D01*
X130758415Y-100910400D01*
X130743176Y-100914875D01*
X130741971Y-100916265D01*
X130740300Y-100923948D01*
X130740300Y-102396285D01*
X130744775Y-102411524D01*
X130746165Y-102412729D01*
X130753848Y-102414400D01*
X130761678Y-102414400D01*
X130829799Y-102434402D01*
X130876292Y-102488058D01*
X130886396Y-102558332D01*
X130856902Y-102622912D01*
X130831681Y-102645164D01*
X130802064Y-102664954D01*
X130802061Y-102664957D01*
X130791748Y-102671848D01*
X130747433Y-102738169D01*
X130735800Y-102796652D01*
X130735800Y-103936148D01*
X124894343Y-103936148D01*
X124868579Y-103888967D01*
X124865700Y-103862184D01*
X124865700Y-103173086D01*
X124885702Y-103104965D01*
X124914996Y-103073123D01*
X124961936Y-103037105D01*
X124968482Y-103032082D01*
X124982533Y-103013771D01*
X124996259Y-102995882D01*
X125064736Y-102906641D01*
X125125244Y-102760562D01*
X125145882Y-102603800D01*
X125130644Y-102488058D01*
X125126322Y-102455226D01*
X125125244Y-102447038D01*
X125118193Y-102430015D01*
X125110605Y-102359425D01*
X125142386Y-102295939D01*
X125203444Y-102259712D01*
X125274396Y-102262248D01*
X125315593Y-102285277D01*
X125327285Y-102295087D01*
X125335380Y-102302506D01*
X125480601Y-102447728D01*
X125488027Y-102455831D01*
X125512245Y-102484694D01*
X125521788Y-102490204D01*
X125521792Y-102490207D01*
X125544879Y-102503536D01*
X125554149Y-102509441D01*
X125571386Y-102521510D01*
X125585016Y-102531054D01*
X125595664Y-102533907D01*
X125598835Y-102535386D01*
X125602111Y-102536578D01*
X125611655Y-102542088D01*
X125648776Y-102548634D01*
X125659483Y-102551008D01*
X125695893Y-102560763D01*
X125706868Y-102559803D01*
X125706870Y-102559803D01*
X125733431Y-102557479D01*
X125744412Y-102557000D01*
X128543694Y-102557000D01*
X128560514Y-102550878D01*
X128581724Y-102545195D01*
X128588490Y-102544002D01*
X128599345Y-102542088D01*
X128614844Y-102533140D01*
X128634743Y-102523861D01*
X128651560Y-102517740D01*
X128660005Y-102510654D01*
X128660007Y-102510653D01*
X128665272Y-102506235D01*
X128683255Y-102493643D01*
X128689206Y-102490207D01*
X128698755Y-102484694D01*
X128705839Y-102476252D01*
X128705841Y-102476250D01*
X128710260Y-102470984D01*
X128725786Y-102455458D01*
X128731048Y-102451042D01*
X128731049Y-102451041D01*
X128739494Y-102443955D01*
X128748443Y-102428455D01*
X128761039Y-102410467D01*
X128763623Y-102407388D01*
X128772540Y-102396761D01*
X128776308Y-102386408D01*
X128776311Y-102386403D01*
X128778663Y-102379940D01*
X128787944Y-102360036D01*
X128791376Y-102354092D01*
X128791377Y-102354090D01*
X128796888Y-102344545D01*
X128798802Y-102333690D01*
X128798804Y-102333685D01*
X128799996Y-102326924D01*
X128805678Y-102305716D01*
X128808030Y-102299252D01*
X128811800Y-102288894D01*
X128811800Y-102232900D01*
X128831802Y-102164779D01*
X128885458Y-102118286D01*
X128937800Y-102106900D01*
X129056048Y-102106900D01*
X129062116Y-102105693D01*
X129102361Y-102097688D01*
X129102362Y-102097688D01*
X129114531Y-102095267D01*
X129126594Y-102087207D01*
X129170539Y-102057843D01*
X129180852Y-102050952D01*
X129187743Y-102040639D01*
X129187746Y-102040636D01*
X129215537Y-101999045D01*
X129270014Y-101953518D01*
X129340457Y-101944671D01*
X129404501Y-101975312D01*
X129438357Y-102025016D01*
X129482705Y-102143920D01*
X129491254Y-102159576D01*
X129567998Y-102262093D01*
X129580607Y-102274702D01*
X129683124Y-102351446D01*
X129698780Y-102359995D01*
X129819822Y-102405141D01*
X129835043Y-102408738D01*
X129884362Y-102414040D01*
X129891077Y-102414400D01*
X130214185Y-102414400D01*
X130229424Y-102409925D01*
X130230629Y-102408535D01*
X130232300Y-102400852D01*
X130232300Y-100753365D01*
X146532588Y-100753365D01*
X146562214Y-101022618D01*
X146630728Y-101284688D01*
X146632529Y-101288926D01*
X146710757Y-101473011D01*
X146736670Y-101533990D01*
X146739063Y-101537911D01*
X146739066Y-101537917D01*
X146808800Y-101652179D01*
X146877782Y-101765210D01*
X147051055Y-101973420D01*
X147054479Y-101976488D01*
X147054483Y-101976492D01*
X147126073Y-102040636D01*
X147252798Y-102154182D01*
X147297924Y-102184037D01*
X147474652Y-102300959D01*
X147478710Y-102303644D01*
X147610904Y-102365614D01*
X147719807Y-102416666D01*
X147719811Y-102416668D01*
X147723976Y-102418620D01*
X147983369Y-102496660D01*
X147987926Y-102497331D01*
X147987932Y-102497332D01*
X148246799Y-102535429D01*
X148246804Y-102535429D01*
X148251361Y-102536100D01*
X148454431Y-102536100D01*
X148656956Y-102521277D01*
X148661447Y-102520277D01*
X148661451Y-102520276D01*
X148916861Y-102463381D01*
X148916866Y-102463380D01*
X148921353Y-102462380D01*
X149174358Y-102365614D01*
X149410577Y-102233041D01*
X149624977Y-102067488D01*
X149650863Y-102040639D01*
X149809788Y-101875798D01*
X149812986Y-101872481D01*
X149970599Y-101652179D01*
X150031364Y-101533990D01*
X150092347Y-101415378D01*
X150092349Y-101415372D01*
X150094456Y-101411275D01*
X150095943Y-101406915D01*
X150095946Y-101406909D01*
X150180428Y-101159272D01*
X150181918Y-101154905D01*
X150231119Y-100888533D01*
X150241012Y-100617835D01*
X150211386Y-100348582D01*
X150208196Y-100336377D01*
X150144037Y-100090968D01*
X150144037Y-100090967D01*
X150142872Y-100086512D01*
X150036930Y-99837210D01*
X150034537Y-99833289D01*
X150034534Y-99833283D01*
X149898209Y-99609908D01*
X149895818Y-99605990D01*
X149722545Y-99397780D01*
X149719121Y-99394712D01*
X149719117Y-99394708D01*
X149570835Y-99261848D01*
X149520802Y-99217018D01*
X149390048Y-99130512D01*
X149298725Y-99070093D01*
X149298723Y-99070092D01*
X149294890Y-99067556D01*
X149141518Y-98995658D01*
X149053793Y-98954534D01*
X149053789Y-98954532D01*
X149049624Y-98952580D01*
X148790231Y-98874540D01*
X148785674Y-98873869D01*
X148785668Y-98873868D01*
X148526801Y-98835771D01*
X148526796Y-98835771D01*
X148522239Y-98835100D01*
X148319169Y-98835100D01*
X148116644Y-98849923D01*
X148112153Y-98850923D01*
X148112149Y-98850924D01*
X147856739Y-98907819D01*
X147856734Y-98907820D01*
X147852247Y-98908820D01*
X147599242Y-99005586D01*
X147363023Y-99138159D01*
X147359389Y-99140965D01*
X147359386Y-99140967D01*
X147307842Y-99180768D01*
X147148623Y-99303712D01*
X146960614Y-99498719D01*
X146803001Y-99719021D01*
X146800892Y-99723123D01*
X146740059Y-99841445D01*
X146679144Y-99959925D01*
X146677657Y-99964285D01*
X146677654Y-99964291D01*
X146631607Y-100099266D01*
X146591682Y-100216295D01*
X146542481Y-100482667D01*
X146532588Y-100753365D01*
X130232300Y-100753365D01*
X130232300Y-100384285D01*
X130740300Y-100384285D01*
X130744775Y-100399524D01*
X130746165Y-100400729D01*
X130753848Y-100402400D01*
X131526185Y-100402400D01*
X131541424Y-100397925D01*
X131542629Y-100396535D01*
X131544300Y-100388852D01*
X131544300Y-99361177D01*
X131543940Y-99354462D01*
X131538638Y-99305143D01*
X131535041Y-99289922D01*
X131489895Y-99168880D01*
X131481346Y-99153224D01*
X131404602Y-99050707D01*
X131391993Y-99038098D01*
X131289476Y-98961354D01*
X131273820Y-98952805D01*
X131152778Y-98907659D01*
X131137557Y-98904062D01*
X131088238Y-98898760D01*
X131081523Y-98898400D01*
X130758415Y-98898400D01*
X130743176Y-98902875D01*
X130741971Y-98904265D01*
X130740300Y-98911948D01*
X130740300Y-100384285D01*
X130232300Y-100384285D01*
X130232300Y-98916515D01*
X130227825Y-98901276D01*
X130226435Y-98900071D01*
X130218752Y-98898400D01*
X129891077Y-98898400D01*
X129884362Y-98898760D01*
X129835043Y-98904062D01*
X129819822Y-98907659D01*
X129698780Y-98952805D01*
X129683124Y-98961354D01*
X129580607Y-99038098D01*
X129567998Y-99050707D01*
X129491254Y-99153224D01*
X129482705Y-99168880D01*
X129438357Y-99287784D01*
X129395810Y-99344620D01*
X129329290Y-99369431D01*
X129259916Y-99354340D01*
X129215537Y-99313755D01*
X129187746Y-99272164D01*
X129187743Y-99272161D01*
X129180852Y-99261848D01*
X129114531Y-99217533D01*
X129102362Y-99215112D01*
X129102361Y-99215112D01*
X129062116Y-99207107D01*
X129056048Y-99205900D01*
X127916552Y-99205900D01*
X127910484Y-99207107D01*
X127870239Y-99215112D01*
X127870238Y-99215112D01*
X127858069Y-99217533D01*
X127791748Y-99261848D01*
X127747433Y-99328169D01*
X127745012Y-99340338D01*
X127745012Y-99340339D01*
X127742227Y-99354340D01*
X127735800Y-99386652D01*
X127735800Y-101780000D01*
X127715798Y-101848121D01*
X127662142Y-101894614D01*
X127609800Y-101906000D01*
X127362800Y-101906000D01*
X127294679Y-101885998D01*
X127248186Y-101832342D01*
X127236800Y-101780000D01*
X127236800Y-99386652D01*
X127230373Y-99354340D01*
X127227588Y-99340339D01*
X127227588Y-99340338D01*
X127225167Y-99328169D01*
X127180852Y-99261848D01*
X127114531Y-99217533D01*
X127102362Y-99215112D01*
X127102361Y-99215112D01*
X127062116Y-99207107D01*
X127056048Y-99205900D01*
X126939647Y-99205900D01*
X126871526Y-99185898D01*
X126825033Y-99132242D01*
X126814126Y-99068919D01*
X126814603Y-99063470D01*
X126814603Y-99063468D01*
X126815563Y-99052493D01*
X126805808Y-99016083D01*
X126803433Y-99005372D01*
X126803431Y-99005358D01*
X126796888Y-98968255D01*
X126791378Y-98958711D01*
X126790186Y-98955435D01*
X126788707Y-98952264D01*
X126785854Y-98941616D01*
X126764240Y-98910748D01*
X126758336Y-98901479D01*
X126745009Y-98878396D01*
X126745007Y-98878393D01*
X126739494Y-98868845D01*
X126710631Y-98844626D01*
X126702527Y-98837200D01*
X123992575Y-96127248D01*
X129372000Y-96127248D01*
X129383633Y-96185731D01*
X129427948Y-96252052D01*
X129494269Y-96296367D01*
X129506438Y-96298788D01*
X129506439Y-96298788D01*
X129546684Y-96306793D01*
X129552752Y-96308000D01*
X131392248Y-96308000D01*
X131398316Y-96306793D01*
X131438561Y-96298788D01*
X131438562Y-96298788D01*
X131450731Y-96296367D01*
X131517052Y-96252052D01*
X131561367Y-96185731D01*
X131573000Y-96127248D01*
X131573000Y-95307500D01*
X137087159Y-95307500D01*
X137106476Y-95503632D01*
X137163686Y-95692227D01*
X137166602Y-95697682D01*
X137166603Y-95697685D01*
X137182146Y-95726764D01*
X137256590Y-95866038D01*
X137381617Y-96018383D01*
X137533962Y-96143410D01*
X137539420Y-96146327D01*
X137539421Y-96146328D01*
X137702315Y-96233397D01*
X137702318Y-96233398D01*
X137707773Y-96236314D01*
X137896368Y-96293524D01*
X138092500Y-96312841D01*
X138288632Y-96293524D01*
X138477227Y-96236314D01*
X138482682Y-96233398D01*
X138482685Y-96233397D01*
X138645579Y-96146328D01*
X138645580Y-96146327D01*
X138651038Y-96143410D01*
X138803383Y-96018383D01*
X138928410Y-95866038D01*
X139002854Y-95726764D01*
X139018397Y-95697685D01*
X139018398Y-95697682D01*
X139021314Y-95692227D01*
X139078524Y-95503632D01*
X139097841Y-95307500D01*
X142167159Y-95307500D01*
X142186476Y-95503632D01*
X142243686Y-95692227D01*
X142246602Y-95697682D01*
X142246603Y-95697685D01*
X142262146Y-95726764D01*
X142336590Y-95866038D01*
X142461617Y-96018383D01*
X142613962Y-96143410D01*
X142619420Y-96146327D01*
X142619421Y-96146328D01*
X142782315Y-96233397D01*
X142782318Y-96233398D01*
X142787773Y-96236314D01*
X142976368Y-96293524D01*
X143172500Y-96312841D01*
X143368632Y-96293524D01*
X143557227Y-96236314D01*
X143562682Y-96233398D01*
X143562685Y-96233397D01*
X143725579Y-96146328D01*
X143725580Y-96146327D01*
X143731038Y-96143410D01*
X143883383Y-96018383D01*
X144008410Y-95866038D01*
X144082854Y-95726764D01*
X144098397Y-95697685D01*
X144098398Y-95697682D01*
X144101314Y-95692227D01*
X144158524Y-95503632D01*
X144177841Y-95307500D01*
X147247159Y-95307500D01*
X147266476Y-95503632D01*
X147323686Y-95692227D01*
X147326602Y-95697682D01*
X147326603Y-95697685D01*
X147342146Y-95726764D01*
X147416590Y-95866038D01*
X147541617Y-96018383D01*
X147693962Y-96143410D01*
X147699420Y-96146327D01*
X147699421Y-96146328D01*
X147862315Y-96233397D01*
X147862318Y-96233398D01*
X147867773Y-96236314D01*
X148056368Y-96293524D01*
X148252500Y-96312841D01*
X148448632Y-96293524D01*
X148637227Y-96236314D01*
X148642682Y-96233398D01*
X148642685Y-96233397D01*
X148805579Y-96146328D01*
X148805580Y-96146327D01*
X148811038Y-96143410D01*
X148963383Y-96018383D01*
X149088410Y-95866038D01*
X149162854Y-95726764D01*
X149178397Y-95697685D01*
X149178398Y-95697682D01*
X149181314Y-95692227D01*
X149238524Y-95503632D01*
X149257841Y-95307500D01*
X149238524Y-95111368D01*
X149181314Y-94922773D01*
X149088410Y-94748962D01*
X148963383Y-94596617D01*
X148811038Y-94471590D01*
X148805579Y-94468672D01*
X148642685Y-94381603D01*
X148642682Y-94381602D01*
X148637227Y-94378686D01*
X148448632Y-94321476D01*
X148252500Y-94302159D01*
X148056368Y-94321476D01*
X147867773Y-94378686D01*
X147862318Y-94381602D01*
X147862315Y-94381603D01*
X147699421Y-94468672D01*
X147693962Y-94471590D01*
X147541617Y-94596617D01*
X147416590Y-94748962D01*
X147323686Y-94922773D01*
X147266476Y-95111368D01*
X147247159Y-95307500D01*
X144177841Y-95307500D01*
X144158524Y-95111368D01*
X144101314Y-94922773D01*
X144008410Y-94748962D01*
X143883383Y-94596617D01*
X143731038Y-94471590D01*
X143725579Y-94468672D01*
X143562685Y-94381603D01*
X143562682Y-94381602D01*
X143557227Y-94378686D01*
X143368632Y-94321476D01*
X143172500Y-94302159D01*
X142976368Y-94321476D01*
X142787773Y-94378686D01*
X142782318Y-94381602D01*
X142782315Y-94381603D01*
X142619421Y-94468672D01*
X142613962Y-94471590D01*
X142461617Y-94596617D01*
X142336590Y-94748962D01*
X142243686Y-94922773D01*
X142186476Y-95111368D01*
X142167159Y-95307500D01*
X139097841Y-95307500D01*
X139078524Y-95111368D01*
X139021314Y-94922773D01*
X138928410Y-94748962D01*
X138803383Y-94596617D01*
X138651038Y-94471590D01*
X138645579Y-94468672D01*
X138482685Y-94381603D01*
X138482682Y-94381602D01*
X138477227Y-94378686D01*
X138288632Y-94321476D01*
X138092500Y-94302159D01*
X137896368Y-94321476D01*
X137707773Y-94378686D01*
X137702318Y-94381602D01*
X137702315Y-94381603D01*
X137539421Y-94468672D01*
X137533962Y-94471590D01*
X137381617Y-94596617D01*
X137256590Y-94748962D01*
X137163686Y-94922773D01*
X137106476Y-95111368D01*
X137087159Y-95307500D01*
X131573000Y-95307500D01*
X131573000Y-94487752D01*
X131561367Y-94429269D01*
X131517052Y-94362948D01*
X131450731Y-94318633D01*
X131438562Y-94316212D01*
X131438561Y-94316212D01*
X131398316Y-94308207D01*
X131392248Y-94307000D01*
X129552752Y-94307000D01*
X129546684Y-94308207D01*
X129506439Y-94316212D01*
X129506438Y-94316212D01*
X129494269Y-94318633D01*
X129427948Y-94362948D01*
X129383633Y-94429269D01*
X129372000Y-94487752D01*
X129372000Y-96127248D01*
X123992575Y-96127248D01*
X117219721Y-89354395D01*
X117185695Y-89292083D01*
X117190760Y-89221268D01*
X117233307Y-89164432D01*
X117299827Y-89139621D01*
X117308816Y-89139300D01*
X136946490Y-89139300D01*
X136957472Y-89139780D01*
X136984020Y-89142103D01*
X136984022Y-89142103D01*
X136995007Y-89143064D01*
X137031415Y-89133308D01*
X137042142Y-89130930D01*
X137045501Y-89130338D01*
X137079245Y-89124388D01*
X137088790Y-89118877D01*
X137092066Y-89117685D01*
X137095234Y-89116208D01*
X137105884Y-89113354D01*
X137136744Y-89091745D01*
X137146015Y-89085839D01*
X137169106Y-89072507D01*
X137178655Y-89066994D01*
X137202885Y-89038117D01*
X137210311Y-89030015D01*
X137590105Y-88650221D01*
X137652417Y-88616195D01*
X137715776Y-88618742D01*
X137786249Y-88640120D01*
X137896368Y-88673524D01*
X138092500Y-88692841D01*
X138288632Y-88673524D01*
X138477227Y-88616314D01*
X138482682Y-88613398D01*
X138482685Y-88613397D01*
X138645579Y-88526328D01*
X138645580Y-88526327D01*
X138651038Y-88523410D01*
X138803383Y-88398383D01*
X138928410Y-88246038D01*
X138940017Y-88224323D01*
X139018397Y-88077685D01*
X139018398Y-88077682D01*
X139021314Y-88072227D01*
X139078524Y-87883632D01*
X139097841Y-87687500D01*
X142167159Y-87687500D01*
X142186476Y-87883632D01*
X142243686Y-88072227D01*
X142246602Y-88077682D01*
X142246603Y-88077685D01*
X142324983Y-88224323D01*
X142336590Y-88246038D01*
X142461617Y-88398383D01*
X142613962Y-88523410D01*
X142619420Y-88526327D01*
X142619421Y-88526328D01*
X142782315Y-88613397D01*
X142782318Y-88613398D01*
X142787773Y-88616314D01*
X142976368Y-88673524D01*
X143172500Y-88692841D01*
X143368632Y-88673524D01*
X143557227Y-88616314D01*
X143562682Y-88613398D01*
X143562685Y-88613397D01*
X143725579Y-88526328D01*
X143725580Y-88526327D01*
X143731038Y-88523410D01*
X143883383Y-88398383D01*
X144008410Y-88246038D01*
X144020017Y-88224323D01*
X144098397Y-88077685D01*
X144098398Y-88077682D01*
X144101314Y-88072227D01*
X144158524Y-87883632D01*
X144177841Y-87687500D01*
X144158524Y-87491368D01*
X144101314Y-87302773D01*
X144008410Y-87128962D01*
X143883383Y-86976617D01*
X143731038Y-86851590D01*
X143725579Y-86848672D01*
X143562685Y-86761603D01*
X143562682Y-86761602D01*
X143557227Y-86758686D01*
X143368632Y-86701476D01*
X143172500Y-86682159D01*
X142976368Y-86701476D01*
X142787773Y-86758686D01*
X142782318Y-86761602D01*
X142782315Y-86761603D01*
X142619421Y-86848672D01*
X142613962Y-86851590D01*
X142461617Y-86976617D01*
X142336590Y-87128962D01*
X142243686Y-87302773D01*
X142186476Y-87491368D01*
X142167159Y-87687500D01*
X139097841Y-87687500D01*
X139078524Y-87491368D01*
X139021314Y-87302773D01*
X138928410Y-87128962D01*
X138803383Y-86976617D01*
X138651038Y-86851590D01*
X138645579Y-86848672D01*
X138482685Y-86761603D01*
X138482682Y-86761602D01*
X138477227Y-86758686D01*
X138288632Y-86701476D01*
X138092500Y-86682159D01*
X137896368Y-86701476D01*
X137707773Y-86758686D01*
X137702318Y-86761602D01*
X137702315Y-86761603D01*
X137539421Y-86848672D01*
X137533962Y-86851590D01*
X137381617Y-86976617D01*
X137256590Y-87128962D01*
X137163686Y-87302773D01*
X137106476Y-87491368D01*
X137087159Y-87687500D01*
X137106476Y-87883632D01*
X137130351Y-87962337D01*
X137161258Y-88064224D01*
X137161892Y-88135218D01*
X137129779Y-88189895D01*
X136868279Y-88451395D01*
X136805967Y-88485421D01*
X136779184Y-88488300D01*
X131375995Y-88488300D01*
X131307874Y-88468298D01*
X131261381Y-88414642D01*
X131251277Y-88344368D01*
X131278596Y-88282366D01*
X131304484Y-88250822D01*
X131304485Y-88250821D01*
X131308410Y-88246038D01*
X131320017Y-88224323D01*
X131398397Y-88077685D01*
X131398398Y-88077682D01*
X131401314Y-88072227D01*
X131458524Y-87883632D01*
X131477841Y-87687500D01*
X131458524Y-87491368D01*
X131401314Y-87302773D01*
X131308410Y-87128962D01*
X131183383Y-86976617D01*
X131031038Y-86851590D01*
X131025579Y-86848672D01*
X130862685Y-86761603D01*
X130862682Y-86761602D01*
X130857227Y-86758686D01*
X130668632Y-86701476D01*
X130472500Y-86682159D01*
X130276368Y-86701476D01*
X130087773Y-86758686D01*
X130082318Y-86761602D01*
X130082315Y-86761603D01*
X129919421Y-86848672D01*
X129913962Y-86851590D01*
X129761617Y-86976617D01*
X129636590Y-87128962D01*
X129543686Y-87302773D01*
X129486476Y-87491368D01*
X129467159Y-87687500D01*
X129486476Y-87883632D01*
X129543686Y-88072227D01*
X129546602Y-88077682D01*
X129546603Y-88077685D01*
X129624983Y-88224323D01*
X129636590Y-88246038D01*
X129640515Y-88250821D01*
X129640516Y-88250822D01*
X129666404Y-88282366D01*
X129694158Y-88347713D01*
X129682177Y-88417691D01*
X129634264Y-88470083D01*
X129569005Y-88488300D01*
X107160016Y-88488300D01*
X107091895Y-88468298D01*
X107070921Y-88451395D01*
X106855911Y-88236385D01*
X106848484Y-88228281D01*
X106831341Y-88207851D01*
X106831342Y-88207851D01*
X106824255Y-88199406D01*
X106804535Y-88188021D01*
X106755541Y-88136639D01*
X106742104Y-88066926D01*
X106768490Y-88001014D01*
X106820712Y-87963826D01*
X106820095Y-87962337D01*
X106831561Y-87957588D01*
X106843731Y-87955167D01*
X106910052Y-87910852D01*
X106954367Y-87844531D01*
X106966000Y-87786048D01*
X106966000Y-86392600D01*
X106986002Y-86324479D01*
X107039658Y-86277986D01*
X107092000Y-86266600D01*
X146319084Y-86266600D01*
X146387205Y-86286602D01*
X146408179Y-86303505D01*
X147289779Y-87185105D01*
X147323805Y-87247417D01*
X147321258Y-87310776D01*
X147266476Y-87491368D01*
X147247159Y-87687500D01*
X147266476Y-87883632D01*
X147323686Y-88072227D01*
X147326602Y-88077682D01*
X147326603Y-88077685D01*
X147404983Y-88224323D01*
X147416590Y-88246038D01*
X147541617Y-88398383D01*
X147693962Y-88523410D01*
X147699420Y-88526327D01*
X147699421Y-88526328D01*
X147862315Y-88613397D01*
X147862318Y-88613398D01*
X147867773Y-88616314D01*
X148056368Y-88673524D01*
X148252500Y-88692841D01*
X148448632Y-88673524D01*
X148637227Y-88616314D01*
X148642682Y-88613398D01*
X148642685Y-88613397D01*
X148805579Y-88526328D01*
X148805580Y-88526327D01*
X148811038Y-88523410D01*
X148963383Y-88398383D01*
X149088410Y-88246038D01*
X149100017Y-88224323D01*
X149178397Y-88077685D01*
X149178398Y-88077682D01*
X149181314Y-88072227D01*
X149238524Y-87883632D01*
X149257841Y-87687500D01*
X149238524Y-87491368D01*
X149181314Y-87302773D01*
X149088410Y-87128962D01*
X148963383Y-86976617D01*
X148811038Y-86851590D01*
X148805579Y-86848672D01*
X148642685Y-86761603D01*
X148642682Y-86761602D01*
X148637227Y-86758686D01*
X148448632Y-86701476D01*
X148252500Y-86682159D01*
X148056368Y-86701476D01*
X147979549Y-86724779D01*
X147875776Y-86756258D01*
X147804782Y-86756892D01*
X147750105Y-86724779D01*
X146750211Y-85724885D01*
X146742784Y-85716781D01*
X146725641Y-85696351D01*
X146725642Y-85696351D01*
X146718555Y-85687906D01*
X146709006Y-85682393D01*
X146685915Y-85669061D01*
X146676644Y-85663155D01*
X146654815Y-85647870D01*
X146645784Y-85641546D01*
X146635134Y-85638692D01*
X146631966Y-85637215D01*
X146628690Y-85636023D01*
X146619145Y-85630512D01*
X146585401Y-85624562D01*
X146582042Y-85623970D01*
X146571315Y-85621592D01*
X146534907Y-85611836D01*
X146523922Y-85612797D01*
X146523920Y-85612797D01*
X146497372Y-85615120D01*
X146486390Y-85615600D01*
X98279415Y-85615600D01*
X98211294Y-85595598D01*
X98180904Y-85568160D01*
X98052385Y-85407003D01*
X98052383Y-85407001D01*
X98049450Y-85403323D01*
X97862617Y-85229968D01*
X97652034Y-85086395D01*
X97422404Y-84975811D01*
X97300631Y-84938249D01*
X97183365Y-84902077D01*
X97183362Y-84902076D01*
X97178858Y-84900687D01*
X97081558Y-84886021D01*
X96931495Y-84863402D01*
X96931490Y-84863402D01*
X96926835Y-84862700D01*
X96671965Y-84862700D01*
X96667310Y-84863402D01*
X96667305Y-84863402D01*
X96517242Y-84886021D01*
X96419942Y-84900687D01*
X96415438Y-84902076D01*
X96415435Y-84902077D01*
X96298169Y-84938249D01*
X96176396Y-84975811D01*
X95946766Y-85086395D01*
X95736183Y-85229968D01*
X95549350Y-85403323D01*
X95546417Y-85407001D01*
X95546415Y-85407003D01*
X95393376Y-85598907D01*
X95393373Y-85598911D01*
X95390441Y-85602588D01*
X95263007Y-85823312D01*
X95169892Y-86060563D01*
X95168842Y-86065162D01*
X95168842Y-86065163D01*
X95119301Y-86282218D01*
X95113178Y-86309043D01*
X95112826Y-86313743D01*
X95112825Y-86313748D01*
X95106916Y-86392600D01*
X95094132Y-86563200D01*
X95094484Y-86567897D01*
X95110968Y-86787862D01*
X95113178Y-86817357D01*
X95169892Y-87065837D01*
X95263007Y-87303088D01*
X95390441Y-87523812D01*
X95393373Y-87527489D01*
X95393376Y-87527493D01*
X95516063Y-87681337D01*
X95549350Y-87723077D01*
X95736183Y-87896432D01*
X95946766Y-88040005D01*
X96002668Y-88066926D01*
X96158586Y-88142012D01*
X96176396Y-88150589D01*
X96256546Y-88175312D01*
X96415435Y-88224323D01*
X96415438Y-88224324D01*
X96419942Y-88225713D01*
X96490745Y-88236385D01*
X96667305Y-88262998D01*
X96667310Y-88262998D01*
X96671965Y-88263700D01*
X96926835Y-88263700D01*
X96931490Y-88262998D01*
X96931495Y-88262998D01*
X97108055Y-88236385D01*
X97178858Y-88225713D01*
X97183362Y-88224324D01*
X97183365Y-88224323D01*
X97342254Y-88175312D01*
X97422404Y-88150589D01*
X97440215Y-88142012D01*
X97596132Y-88066926D01*
X97652034Y-88040005D01*
X97862617Y-87896432D01*
X98049450Y-87723077D01*
X98082737Y-87681337D01*
X98205424Y-87527493D01*
X98205427Y-87527489D01*
X98208359Y-87523812D01*
X98335793Y-87303088D01*
X98428908Y-87065837D01*
X98485622Y-86817357D01*
X98487833Y-86787862D01*
X98504316Y-86567897D01*
X98504668Y-86563200D01*
X98492589Y-86402015D01*
X98507445Y-86332591D01*
X98557476Y-86282218D01*
X98618237Y-86266600D01*
X104939000Y-86266600D01*
X105007121Y-86286602D01*
X105053614Y-86340258D01*
X105065000Y-86392600D01*
X105065000Y-87786048D01*
X105076633Y-87844531D01*
X105120948Y-87910852D01*
X105187269Y-87955167D01*
X105199438Y-87957588D01*
X105199439Y-87957588D01*
X105239684Y-87965593D01*
X105245752Y-87966800D01*
X105273350Y-87966800D01*
X105341471Y-87986802D01*
X105387964Y-88040458D01*
X105398068Y-88110732D01*
X105368574Y-88175312D01*
X105354341Y-88189322D01*
X105348892Y-88193894D01*
X105339345Y-88199406D01*
X105332259Y-88207851D01*
X105315115Y-88228282D01*
X105307689Y-88236385D01*
X98528726Y-95015348D01*
X98466414Y-95049374D01*
X98391414Y-95042662D01*
X98387947Y-95041226D01*
X98377631Y-95034333D01*
X98365462Y-95031912D01*
X98365461Y-95031912D01*
X98325216Y-95023907D01*
X98319148Y-95022700D01*
X95279652Y-95022700D01*
X95273584Y-95023907D01*
X95233339Y-95031912D01*
X95233338Y-95031912D01*
X95221169Y-95034333D01*
X95154848Y-95078648D01*
X95110533Y-95144969D01*
X95098900Y-95203452D01*
X95098900Y-98242948D01*
X95110533Y-98301431D01*
X95154848Y-98367752D01*
X95221169Y-98412067D01*
X95233338Y-98414488D01*
X95233339Y-98414488D01*
X95273584Y-98422493D01*
X95279652Y-98423700D01*
X98319148Y-98423700D01*
X98325216Y-98422493D01*
X98365461Y-98414488D01*
X98365462Y-98414488D01*
X98377631Y-98412067D01*
X98443952Y-98367752D01*
X98488267Y-98301431D01*
X98499900Y-98242948D01*
X98499900Y-97174700D01*
X98519902Y-97106579D01*
X98573558Y-97060086D01*
X98625900Y-97048700D01*
X98681894Y-97048700D01*
X98698714Y-97042578D01*
X98719924Y-97036895D01*
X98726690Y-97035702D01*
X98737545Y-97033788D01*
X98753044Y-97024840D01*
X98772943Y-97015561D01*
X98789760Y-97009440D01*
X98798205Y-97002354D01*
X98798207Y-97002353D01*
X98803472Y-96997935D01*
X98821455Y-96985343D01*
X98836955Y-96976394D01*
X98844039Y-96967952D01*
X98844041Y-96967950D01*
X98848460Y-96962684D01*
X98863986Y-96947158D01*
X98869248Y-96942742D01*
X98877694Y-96935655D01*
X98886642Y-96920157D01*
X98899239Y-96902167D01*
X98903656Y-96896903D01*
X98910740Y-96888461D01*
X98914508Y-96878108D01*
X98914511Y-96878103D01*
X98916863Y-96871640D01*
X98926144Y-96851736D01*
X98929576Y-96845792D01*
X98935088Y-96836245D01*
X98937002Y-96825391D01*
X98937004Y-96825385D01*
X98938196Y-96818624D01*
X98943878Y-96797416D01*
X98946230Y-96790952D01*
X98950000Y-96780594D01*
X98950000Y-95686461D01*
X105329893Y-95686461D01*
X105339187Y-95698475D01*
X105379588Y-95726764D01*
X105389084Y-95732247D01*
X105578613Y-95820626D01*
X105588905Y-95824372D01*
X105790901Y-95878496D01*
X105801696Y-95880399D01*
X106010025Y-95898626D01*
X106020975Y-95898626D01*
X106229304Y-95880399D01*
X106240099Y-95878496D01*
X106442095Y-95824372D01*
X106452387Y-95820626D01*
X106641916Y-95732247D01*
X106651412Y-95726764D01*
X106692648Y-95697890D01*
X106701023Y-95687412D01*
X106693957Y-95673968D01*
X106028311Y-95008321D01*
X106014368Y-95000708D01*
X106012534Y-95000839D01*
X106005920Y-95005090D01*
X105336320Y-95674691D01*
X105329893Y-95686461D01*
X98950000Y-95686461D01*
X98950000Y-95566916D01*
X98970002Y-95498795D01*
X98986905Y-95477821D01*
X99822951Y-94641775D01*
X104753174Y-94641775D01*
X104771401Y-94850104D01*
X104773304Y-94860899D01*
X104827428Y-95062895D01*
X104831174Y-95073187D01*
X104919553Y-95262716D01*
X104925036Y-95272212D01*
X104953910Y-95313448D01*
X104964388Y-95321823D01*
X104977832Y-95314757D01*
X105643479Y-94649111D01*
X105649856Y-94637432D01*
X106379908Y-94637432D01*
X106380039Y-94639266D01*
X106384290Y-94645880D01*
X107053891Y-95315480D01*
X107065661Y-95321907D01*
X107077675Y-95312613D01*
X107105964Y-95272212D01*
X107111447Y-95262716D01*
X107199826Y-95073187D01*
X107203572Y-95062895D01*
X107257696Y-94860899D01*
X107259599Y-94850104D01*
X107277826Y-94641775D01*
X107277826Y-94630825D01*
X107259599Y-94422496D01*
X107257696Y-94411701D01*
X107203572Y-94209705D01*
X107199826Y-94199413D01*
X107111446Y-94009883D01*
X107105966Y-94000393D01*
X107077089Y-93959151D01*
X107066613Y-93950777D01*
X107053166Y-93957845D01*
X106387521Y-94623489D01*
X106379908Y-94637432D01*
X105649856Y-94637432D01*
X105651092Y-94635168D01*
X105650961Y-94633334D01*
X105646710Y-94626720D01*
X104977109Y-93957120D01*
X104965339Y-93950693D01*
X104953324Y-93959989D01*
X104925034Y-94000393D01*
X104919554Y-94009883D01*
X104831174Y-94199413D01*
X104827428Y-94209705D01*
X104773304Y-94411701D01*
X104771401Y-94422496D01*
X104753174Y-94630825D01*
X104753174Y-94641775D01*
X99822951Y-94641775D01*
X100879539Y-93585187D01*
X105329977Y-93585187D01*
X105337045Y-93598634D01*
X106002689Y-94264279D01*
X106016632Y-94271892D01*
X106018466Y-94271761D01*
X106025080Y-94267510D01*
X106694680Y-93597909D01*
X106701107Y-93586139D01*
X106691813Y-93574125D01*
X106651412Y-93545836D01*
X106641916Y-93540353D01*
X106452387Y-93451974D01*
X106442095Y-93448228D01*
X106240099Y-93394104D01*
X106229304Y-93392201D01*
X106020975Y-93373974D01*
X106010025Y-93373974D01*
X105801696Y-93392201D01*
X105790901Y-93394104D01*
X105588905Y-93448228D01*
X105578613Y-93451974D01*
X105389083Y-93540354D01*
X105379593Y-93545834D01*
X105338351Y-93574711D01*
X105329977Y-93585187D01*
X100879539Y-93585187D01*
X102368426Y-92096300D01*
X105060401Y-92096300D01*
X105078753Y-92282631D01*
X105133104Y-92461801D01*
X105221364Y-92626925D01*
X105340143Y-92771657D01*
X105484875Y-92890436D01*
X105490333Y-92893353D01*
X105490334Y-92893354D01*
X105644541Y-92975779D01*
X105644544Y-92975780D01*
X105649999Y-92978696D01*
X105829169Y-93033047D01*
X106015500Y-93051399D01*
X106201831Y-93033047D01*
X106381001Y-92978696D01*
X106386456Y-92975780D01*
X106386459Y-92975779D01*
X106540666Y-92893354D01*
X106540667Y-92893353D01*
X106546125Y-92890436D01*
X106690857Y-92771657D01*
X106809636Y-92626925D01*
X106897896Y-92461801D01*
X106952247Y-92282631D01*
X106970599Y-92096300D01*
X106952247Y-91909969D01*
X106897896Y-91730799D01*
X106809636Y-91565675D01*
X106690857Y-91420943D01*
X106546125Y-91302164D01*
X106540666Y-91299246D01*
X106386459Y-91216821D01*
X106386456Y-91216820D01*
X106381001Y-91213904D01*
X106201831Y-91159553D01*
X106015500Y-91141201D01*
X105829169Y-91159553D01*
X105649999Y-91213904D01*
X105644544Y-91216820D01*
X105644541Y-91216821D01*
X105490334Y-91299246D01*
X105484875Y-91302164D01*
X105340143Y-91420943D01*
X105221364Y-91565675D01*
X105133104Y-91730799D01*
X105078753Y-91909969D01*
X105060401Y-92096300D01*
X102368426Y-92096300D01*
X104858399Y-89606327D01*
X104920711Y-89572301D01*
X104991526Y-89577366D01*
X105048362Y-89619913D01*
X105072887Y-89683072D01*
X105078753Y-89742631D01*
X105133104Y-89921801D01*
X105136020Y-89927256D01*
X105136021Y-89927259D01*
X105144650Y-89943402D01*
X105221364Y-90086925D01*
X105340143Y-90231657D01*
X105484875Y-90350436D01*
X105490333Y-90353353D01*
X105490334Y-90353354D01*
X105644541Y-90435779D01*
X105644544Y-90435780D01*
X105649999Y-90438696D01*
X105829169Y-90493047D01*
X106015500Y-90511399D01*
X106201831Y-90493047D01*
X106381001Y-90438696D01*
X106386456Y-90435780D01*
X106386459Y-90435779D01*
X106540666Y-90353354D01*
X106540667Y-90353353D01*
X106546125Y-90350436D01*
X106690857Y-90231657D01*
X106809636Y-90086925D01*
X106883676Y-89948405D01*
X106933427Y-89897756D01*
X106994798Y-89881800D01*
X116774284Y-89881800D01*
X116842405Y-89901802D01*
X116863379Y-89918705D01*
X125945061Y-99000388D01*
X125979087Y-99062700D01*
X125974022Y-99133515D01*
X125931475Y-99190351D01*
X125880548Y-99213062D01*
X125858069Y-99217533D01*
X125857650Y-99215426D01*
X125803038Y-99221295D01*
X125736319Y-99186393D01*
X124459311Y-97909385D01*
X124451884Y-97901281D01*
X124434741Y-97880851D01*
X124434742Y-97880851D01*
X124427655Y-97872406D01*
X124418106Y-97866893D01*
X124395015Y-97853561D01*
X124385744Y-97847655D01*
X124354884Y-97826046D01*
X124344234Y-97823192D01*
X124341066Y-97821715D01*
X124337790Y-97820523D01*
X124328245Y-97815012D01*
X124294501Y-97809062D01*
X124291142Y-97808470D01*
X124280415Y-97806092D01*
X124244007Y-97796336D01*
X124233022Y-97797297D01*
X124233020Y-97797297D01*
X124206472Y-97799620D01*
X124195490Y-97800100D01*
X113135109Y-97800100D01*
X113066988Y-97780098D01*
X113020495Y-97726442D01*
X113013402Y-97706711D01*
X113012522Y-97703427D01*
X113011444Y-97695238D01*
X112950936Y-97549159D01*
X112854682Y-97423718D01*
X112729241Y-97327464D01*
X112583162Y-97266956D01*
X112426400Y-97246318D01*
X112269638Y-97266956D01*
X112123559Y-97327464D01*
X111998118Y-97423718D01*
X111901864Y-97549159D01*
X111841356Y-97695238D01*
X111840278Y-97703427D01*
X111839398Y-97706711D01*
X111802446Y-97767334D01*
X111738586Y-97798355D01*
X111717691Y-97800100D01*
X104563513Y-97800100D01*
X104552532Y-97799621D01*
X104525970Y-97797297D01*
X104525968Y-97797297D01*
X104514993Y-97796337D01*
X104478583Y-97806092D01*
X104467876Y-97808466D01*
X104430755Y-97815012D01*
X104421212Y-97820521D01*
X104417940Y-97821712D01*
X104414767Y-97823192D01*
X104404116Y-97826046D01*
X104373256Y-97847655D01*
X104363985Y-97853561D01*
X104340894Y-97866893D01*
X104331345Y-97872406D01*
X104324259Y-97880851D01*
X104307115Y-97901282D01*
X104299689Y-97909385D01*
X96282208Y-105926866D01*
X96219896Y-105960892D01*
X96149081Y-105955827D01*
X96092245Y-105913280D01*
X96067434Y-105846760D01*
X96067905Y-105823664D01*
X96075773Y-105753830D01*
X96075773Y-105753829D01*
X96076565Y-105746800D01*
X96056368Y-105567545D01*
X95996789Y-105397278D01*
X95900816Y-105244538D01*
X95773262Y-105116984D01*
X95620522Y-105021011D01*
X95621442Y-105019546D01*
X95575363Y-104977937D01*
X95556759Y-104909421D01*
X95578151Y-104841724D01*
X95632747Y-104796339D01*
X95647236Y-104791104D01*
X95678908Y-104781805D01*
X95690015Y-104777358D01*
X95867416Y-104685901D01*
X95877475Y-104679437D01*
X96034372Y-104556052D01*
X96043014Y-104547812D01*
X96173723Y-104396966D01*
X96180659Y-104387226D01*
X96280454Y-104214376D01*
X96285422Y-104203497D01*
X96350700Y-104014885D01*
X96350727Y-104014775D01*
X96349289Y-104004773D01*
X96335757Y-104000800D01*
X93660596Y-104000800D01*
X93647065Y-104004773D01*
X93645718Y-104014143D01*
X93667761Y-104105008D01*
X93671668Y-104116296D01*
X93754586Y-104297860D01*
X93760560Y-104308209D01*
X93876339Y-104470798D01*
X93884165Y-104479829D01*
X94028616Y-104617563D01*
X94038019Y-104624957D01*
X94205920Y-104732860D01*
X94216554Y-104738342D01*
X94357026Y-104794579D01*
X94412833Y-104838466D01*
X94436053Y-104905558D01*
X94419315Y-104974553D01*
X94370656Y-105019703D01*
X94371478Y-105021011D01*
X94218738Y-105116984D01*
X94091184Y-105244538D01*
X93995211Y-105397278D01*
X93935632Y-105567545D01*
X93915435Y-105746800D01*
X93916227Y-105753829D01*
X93934193Y-105913280D01*
X93935632Y-105926055D01*
X93995211Y-106096322D01*
X93998976Y-106102314D01*
X94012631Y-106124045D01*
X94091184Y-106249062D01*
X94218738Y-106376616D01*
X94371478Y-106472589D01*
X94541745Y-106532168D01*
X94548772Y-106532960D01*
X94548773Y-106532960D01*
X94588456Y-106537431D01*
X94676046Y-106547300D01*
X95315954Y-106547300D01*
X95403544Y-106537431D01*
X95443227Y-106532960D01*
X95443228Y-106532960D01*
X95450255Y-106532168D01*
X95620522Y-106472589D01*
X95773262Y-106376616D01*
X95792305Y-106357573D01*
X95854617Y-106323547D01*
X95925432Y-106328612D01*
X95982268Y-106371159D01*
X96007079Y-106437679D01*
X96007400Y-106446668D01*
X96007400Y-106878198D01*
X95987398Y-106946319D01*
X95933742Y-106992812D01*
X95863468Y-107002916D01*
X95834107Y-106993364D01*
X95833882Y-106994007D01*
X95712938Y-106951687D01*
X95705699Y-106949154D01*
X95698067Y-106948438D01*
X95698066Y-106948438D01*
X95678202Y-106946575D01*
X95678195Y-106946575D01*
X95675266Y-106946300D01*
X94316734Y-106946300D01*
X94313805Y-106946575D01*
X94313798Y-106946575D01*
X94293934Y-106948438D01*
X94293933Y-106948438D01*
X94286301Y-106949154D01*
X94158118Y-106994007D01*
X94048850Y-107074650D01*
X93968207Y-107183918D01*
X93923354Y-107312101D01*
X93920500Y-107342534D01*
X93920500Y-108151066D01*
X93923354Y-108181499D01*
X93925887Y-108188738D01*
X93946089Y-108246471D01*
X93968207Y-108309682D01*
X94048850Y-108418950D01*
X94158118Y-108499593D01*
X94286301Y-108544446D01*
X94293933Y-108545162D01*
X94293934Y-108545162D01*
X94313798Y-108547025D01*
X94313805Y-108547025D01*
X94316734Y-108547300D01*
X95276283Y-108547300D01*
X95344404Y-108567302D01*
X95390897Y-108620958D01*
X95401001Y-108691232D01*
X95371507Y-108755812D01*
X95365378Y-108762395D01*
X93083084Y-111044690D01*
X93074981Y-111052116D01*
X93046106Y-111076345D01*
X93040593Y-111085894D01*
X93027261Y-111108985D01*
X93021355Y-111118256D01*
X92999746Y-111149116D01*
X92996892Y-111159766D01*
X92995415Y-111162934D01*
X92994223Y-111166210D01*
X92988712Y-111175755D01*
X92982762Y-111209499D01*
X92982170Y-111212858D01*
X92979792Y-111223585D01*
X92970036Y-111259993D01*
X92970997Y-111270978D01*
X92970997Y-111270980D01*
X92973320Y-111297528D01*
X92973800Y-111308510D01*
X92973800Y-118271990D01*
X92973320Y-118282972D01*
X92971676Y-118301767D01*
X92970036Y-118320507D01*
X92485500Y-118320507D01*
X92485500Y-103478825D01*
X93641273Y-103478825D01*
X93642711Y-103488827D01*
X93656243Y-103492800D01*
X94723885Y-103492800D01*
X94739124Y-103488325D01*
X94740329Y-103486935D01*
X94742000Y-103479252D01*
X94742000Y-103474685D01*
X95250000Y-103474685D01*
X95254475Y-103489924D01*
X95255865Y-103491129D01*
X95263548Y-103492800D01*
X96331404Y-103492800D01*
X96344935Y-103488827D01*
X96346282Y-103479457D01*
X96324239Y-103388592D01*
X96320332Y-103377304D01*
X96237414Y-103195740D01*
X96231440Y-103185391D01*
X96115661Y-103022802D01*
X96107835Y-103013771D01*
X95963384Y-102876037D01*
X95953981Y-102868643D01*
X95786080Y-102760740D01*
X95775446Y-102755258D01*
X95590157Y-102681079D01*
X95578683Y-102677709D01*
X95382690Y-102639935D01*
X95370804Y-102638800D01*
X95268115Y-102638800D01*
X95252876Y-102643275D01*
X95251671Y-102644665D01*
X95250000Y-102652348D01*
X95250000Y-103474685D01*
X94742000Y-103474685D01*
X94742000Y-102656915D01*
X94737525Y-102641676D01*
X94736135Y-102640471D01*
X94728452Y-102638800D01*
X94671220Y-102638800D01*
X94665227Y-102639086D01*
X94516332Y-102653303D01*
X94504598Y-102655565D01*
X94313090Y-102711796D01*
X94301985Y-102716242D01*
X94124584Y-102807699D01*
X94114525Y-102814163D01*
X93957628Y-102937548D01*
X93948986Y-102945788D01*
X93818277Y-103096634D01*
X93811341Y-103106374D01*
X93711546Y-103279224D01*
X93706578Y-103290103D01*
X93641300Y-103478715D01*
X93641273Y-103478825D01*
X92485500Y-103478825D01*
X92485500Y-91643200D01*
X95094132Y-91643200D01*
X95113178Y-91897357D01*
X95114228Y-91901956D01*
X95114228Y-91901958D01*
X95117464Y-91916134D01*
X95169892Y-92145837D01*
X95263007Y-92383088D01*
X95390441Y-92603812D01*
X95393373Y-92607489D01*
X95393376Y-92607493D01*
X95520482Y-92766878D01*
X95549350Y-92803077D01*
X95736183Y-92976432D01*
X95946766Y-93120005D01*
X96176396Y-93230589D01*
X96298169Y-93268151D01*
X96415435Y-93304323D01*
X96415438Y-93304324D01*
X96419942Y-93305713D01*
X96517242Y-93320379D01*
X96667305Y-93342998D01*
X96667310Y-93342998D01*
X96671965Y-93343700D01*
X96926835Y-93343700D01*
X96931490Y-93342998D01*
X96931495Y-93342998D01*
X97081558Y-93320379D01*
X97178858Y-93305713D01*
X97183362Y-93304324D01*
X97183365Y-93304323D01*
X97300631Y-93268151D01*
X97422404Y-93230589D01*
X97652034Y-93120005D01*
X97862617Y-92976432D01*
X98049450Y-92803077D01*
X98078318Y-92766878D01*
X98205424Y-92607493D01*
X98205427Y-92607489D01*
X98208359Y-92603812D01*
X98335793Y-92383088D01*
X98428908Y-92145837D01*
X98481336Y-91916134D01*
X98484572Y-91901958D01*
X98484572Y-91901956D01*
X98485622Y-91897357D01*
X98504668Y-91643200D01*
X98499268Y-91571134D01*
X98485975Y-91393748D01*
X98485974Y-91393743D01*
X98485622Y-91389043D01*
X98465793Y-91302164D01*
X98429958Y-91145163D01*
X98429958Y-91145162D01*
X98428908Y-91140563D01*
X98335793Y-90903312D01*
X98208359Y-90682588D01*
X98205427Y-90678911D01*
X98205424Y-90678907D01*
X98052385Y-90487003D01*
X98052383Y-90487001D01*
X98049450Y-90483323D01*
X97862617Y-90309968D01*
X97652034Y-90166395D01*
X97422404Y-90055811D01*
X97300631Y-90018249D01*
X97183365Y-89982077D01*
X97183362Y-89982076D01*
X97178858Y-89980687D01*
X97081558Y-89966021D01*
X96931495Y-89943402D01*
X96931490Y-89943402D01*
X96926835Y-89942700D01*
X96671965Y-89942700D01*
X96667310Y-89943402D01*
X96667305Y-89943402D01*
X96517242Y-89966021D01*
X96419942Y-89980687D01*
X96415438Y-89982076D01*
X96415435Y-89982077D01*
X96298169Y-90018249D01*
X96176396Y-90055811D01*
X95946766Y-90166395D01*
X95736183Y-90309968D01*
X95549350Y-90483323D01*
X95546417Y-90487001D01*
X95546415Y-90487003D01*
X95393376Y-90678907D01*
X95393373Y-90678911D01*
X95390441Y-90682588D01*
X95263007Y-90903312D01*
X95169892Y-91140563D01*
X95168842Y-91145162D01*
X95168842Y-91145163D01*
X95133008Y-91302164D01*
X95113178Y-91389043D01*
X95112826Y-91393743D01*
X95112825Y-91393748D01*
X95099532Y-91571134D01*
X95094132Y-91643200D01*
X92485500Y-91643200D01*
X92485500Y-83565000D01*
X92505502Y-83496879D01*
X92559158Y-83450386D01*
X92611500Y-83439000D01*
X150738500Y-83439000D01*
X150806621Y-83459002D01*
G37*
%TD.AperFunction*%
%TA.AperFunction,Conductor*%
G36*
X115653833Y-115170662D02*
G01*
X115710668Y-115213209D01*
X115735479Y-115279729D01*
X115735800Y-115288718D01*
X115735800Y-117326148D01*
X115747433Y-117384631D01*
X115791748Y-117450952D01*
X115858069Y-117495267D01*
X115870238Y-117497688D01*
X115870239Y-117497688D01*
X115910484Y-117505693D01*
X115916552Y-117506900D01*
X116034800Y-117506900D01*
X116102921Y-117526902D01*
X116149414Y-117580558D01*
X116160800Y-117632900D01*
X116160800Y-117688894D01*
X116166921Y-117705710D01*
X116172605Y-117726924D01*
X116175712Y-117744545D01*
X116184660Y-117760044D01*
X116193938Y-117779940D01*
X116200060Y-117796760D01*
X116207146Y-117805205D01*
X116207147Y-117805207D01*
X116211565Y-117810472D01*
X116224156Y-117828453D01*
X116233106Y-117843955D01*
X116241548Y-117851039D01*
X116241550Y-117851041D01*
X116246816Y-117855460D01*
X116262342Y-117870986D01*
X116262955Y-117871716D01*
X116273845Y-117884694D01*
X116289343Y-117893642D01*
X116307333Y-117906239D01*
X116321039Y-117917740D01*
X116331392Y-117921508D01*
X116331397Y-117921511D01*
X116337860Y-117923863D01*
X116357760Y-117933142D01*
X116373255Y-117942088D01*
X116384109Y-117944002D01*
X116384115Y-117944004D01*
X116390876Y-117945196D01*
X116412084Y-117950878D01*
X116417608Y-117952888D01*
X116428906Y-117957000D01*
X117411284Y-117957000D01*
X117479405Y-117977002D01*
X117500379Y-117993905D01*
X118010226Y-118503752D01*
X118044252Y-118566064D01*
X118039187Y-118636879D01*
X117996640Y-118693715D01*
X117933482Y-118718240D01*
X117888296Y-118722691D01*
X117860517Y-118725427D01*
X117854597Y-118727223D01*
X117854591Y-118727224D01*
X117723771Y-118766908D01*
X117679085Y-118780463D01*
X117511876Y-118869838D01*
X117365317Y-118990117D01*
X117245038Y-119136676D01*
X117242121Y-119142134D01*
X117242120Y-119142135D01*
X117225179Y-119173830D01*
X117155663Y-119303885D01*
X117149053Y-119325676D01*
X117102424Y-119479391D01*
X117102423Y-119479397D01*
X117100627Y-119485317D01*
X117082043Y-119674000D01*
X117100627Y-119862683D01*
X117102423Y-119868603D01*
X117102424Y-119868609D01*
X117112156Y-119900691D01*
X117155663Y-120044115D01*
X117206417Y-120139069D01*
X117224904Y-120173655D01*
X117245038Y-120211324D01*
X117365317Y-120357883D01*
X117511876Y-120478162D01*
X117517334Y-120481079D01*
X117517335Y-120481080D01*
X117530585Y-120488162D01*
X117679085Y-120567537D01*
X117723771Y-120581092D01*
X117854591Y-120620776D01*
X117854597Y-120620777D01*
X117860517Y-120622573D01*
X118049200Y-120641157D01*
X118237883Y-120622573D01*
X118243803Y-120620777D01*
X118243809Y-120620776D01*
X118374629Y-120581092D01*
X118419315Y-120567537D01*
X118567815Y-120488162D01*
X118581065Y-120481080D01*
X118581066Y-120481079D01*
X118586524Y-120478162D01*
X118733083Y-120357883D01*
X118853362Y-120211324D01*
X118856280Y-120205865D01*
X118856283Y-120205861D01*
X118864912Y-120189717D01*
X118914664Y-120139069D01*
X118983901Y-120123360D01*
X119050640Y-120147577D01*
X119067754Y-120163622D01*
X119071006Y-120169255D01*
X119098501Y-120192326D01*
X119099882Y-120193485D01*
X119107985Y-120200911D01*
X120480589Y-121573515D01*
X120488016Y-121581619D01*
X120512245Y-121610494D01*
X120521794Y-121616007D01*
X120544885Y-121629339D01*
X120554156Y-121635245D01*
X120585016Y-121656854D01*
X120595667Y-121659708D01*
X120598840Y-121661188D01*
X120602112Y-121662379D01*
X120611655Y-121667888D01*
X120648776Y-121674434D01*
X120659483Y-121676808D01*
X120695893Y-121686563D01*
X120706868Y-121685603D01*
X120706870Y-121685603D01*
X120733431Y-121683279D01*
X120744412Y-121682800D01*
X129253284Y-121682800D01*
X129321405Y-121702802D01*
X129342379Y-121719705D01*
X134996875Y-127374202D01*
X135030901Y-127436514D01*
X135025836Y-127507329D01*
X134983289Y-127564165D01*
X134960123Y-127577911D01*
X134828136Y-127638188D01*
X134817791Y-127644160D01*
X134655202Y-127759939D01*
X134646171Y-127767765D01*
X134508437Y-127912216D01*
X134501043Y-127921619D01*
X134393140Y-128089520D01*
X134387658Y-128100154D01*
X134331421Y-128240626D01*
X134287534Y-128296433D01*
X134220442Y-128319653D01*
X134151447Y-128302915D01*
X134106297Y-128254256D01*
X134104989Y-128255078D01*
X134012783Y-128108333D01*
X134012783Y-128108332D01*
X134009016Y-128102338D01*
X133881462Y-127974784D01*
X133836643Y-127946622D01*
X133734714Y-127882576D01*
X133728722Y-127878811D01*
X133558455Y-127819232D01*
X133551428Y-127818440D01*
X133551427Y-127818440D01*
X133386229Y-127799827D01*
X133379200Y-127799035D01*
X133372171Y-127799827D01*
X133206973Y-127818440D01*
X133206972Y-127818440D01*
X133199945Y-127819232D01*
X133029678Y-127878811D01*
X133023686Y-127882576D01*
X132921758Y-127946622D01*
X132876938Y-127974784D01*
X132749384Y-128102338D01*
X132745617Y-128108332D01*
X132745617Y-128108333D01*
X132735852Y-128123874D01*
X132653411Y-128255078D01*
X132651075Y-128261755D01*
X132625415Y-128335086D01*
X132584036Y-128392777D01*
X132518036Y-128418940D01*
X132448369Y-128405266D01*
X132417391Y-128382565D01*
X126259311Y-122224485D01*
X126251884Y-122216381D01*
X126234741Y-122195951D01*
X126234742Y-122195951D01*
X126227655Y-122187506D01*
X126204215Y-122173973D01*
X126195015Y-122168661D01*
X126185744Y-122162755D01*
X126163915Y-122147470D01*
X126154884Y-122141146D01*
X126144234Y-122138292D01*
X126141066Y-122136815D01*
X126137790Y-122135623D01*
X126128245Y-122130112D01*
X126094501Y-122124162D01*
X126091142Y-122123570D01*
X126080415Y-122121192D01*
X126044007Y-122111436D01*
X126033022Y-122112397D01*
X126033020Y-122112397D01*
X126006472Y-122114720D01*
X125995490Y-122115200D01*
X115922916Y-122115200D01*
X115854795Y-122095198D01*
X115833821Y-122078295D01*
X114743370Y-120987844D01*
X114709344Y-120925532D01*
X114714409Y-120854717D01*
X114756956Y-120797881D01*
X114823476Y-120773070D01*
X114885715Y-120784554D01*
X115068193Y-120869645D01*
X115078485Y-120873391D01*
X115282509Y-120928059D01*
X115293304Y-120929962D01*
X115503725Y-120948372D01*
X115514675Y-120948372D01*
X115725096Y-120929962D01*
X115735891Y-120928059D01*
X115939915Y-120873391D01*
X115950207Y-120869645D01*
X116141645Y-120780376D01*
X116151131Y-120774898D01*
X116194964Y-120744207D01*
X116203339Y-120733729D01*
X116196271Y-120720281D01*
X115151122Y-119675132D01*
X115873608Y-119675132D01*
X115873739Y-119676965D01*
X115877990Y-119683580D01*
X116556203Y-120361793D01*
X116567977Y-120368223D01*
X116579993Y-120358926D01*
X116610098Y-120315931D01*
X116615576Y-120306445D01*
X116704845Y-120115007D01*
X116708591Y-120104715D01*
X116763259Y-119900691D01*
X116765162Y-119889896D01*
X116783572Y-119679475D01*
X116783572Y-119668525D01*
X116765162Y-119458104D01*
X116763259Y-119447309D01*
X116708591Y-119243285D01*
X116704845Y-119232993D01*
X116615577Y-119041559D01*
X116610097Y-119032068D01*
X116579406Y-118988235D01*
X116568929Y-118979860D01*
X116555482Y-118986928D01*
X115881222Y-119661188D01*
X115873608Y-119675132D01*
X115151122Y-119675132D01*
X114462197Y-118986207D01*
X114450423Y-118979777D01*
X114438407Y-118989074D01*
X114408303Y-119032068D01*
X114402823Y-119041559D01*
X114313555Y-119232993D01*
X114309809Y-119243285D01*
X114255141Y-119447309D01*
X114253238Y-119458104D01*
X114234828Y-119668525D01*
X114234828Y-119679475D01*
X114253238Y-119889896D01*
X114255141Y-119900691D01*
X114309809Y-120104715D01*
X114313555Y-120115007D01*
X114398646Y-120297485D01*
X114409307Y-120367677D01*
X114380327Y-120432489D01*
X114320907Y-120471346D01*
X114249913Y-120471909D01*
X114195356Y-120439830D01*
X113901454Y-120145928D01*
X113867428Y-120083616D01*
X113869974Y-120020258D01*
X113893535Y-119942586D01*
X113917773Y-119862683D01*
X113936357Y-119674000D01*
X113917773Y-119485317D01*
X113915977Y-119479397D01*
X113915976Y-119479391D01*
X113869347Y-119325676D01*
X113862737Y-119303885D01*
X113793221Y-119173830D01*
X113776280Y-119142135D01*
X113776279Y-119142134D01*
X113773362Y-119136676D01*
X113653083Y-118990117D01*
X113506524Y-118869838D01*
X113339315Y-118780463D01*
X113294629Y-118766908D01*
X113163809Y-118727224D01*
X113163803Y-118727223D01*
X113157883Y-118725427D01*
X113070730Y-118716843D01*
X112972127Y-118707131D01*
X112906295Y-118680548D01*
X112865286Y-118622594D01*
X112864914Y-118614271D01*
X114815060Y-118614271D01*
X114822128Y-118627718D01*
X115496388Y-119301978D01*
X115510332Y-119309592D01*
X115512165Y-119309461D01*
X115518780Y-119305210D01*
X116196993Y-118626997D01*
X116203423Y-118615223D01*
X116194126Y-118603207D01*
X116151131Y-118573102D01*
X116141645Y-118567624D01*
X115950207Y-118478355D01*
X115939915Y-118474609D01*
X115735891Y-118419941D01*
X115725096Y-118418038D01*
X115514675Y-118399628D01*
X115503725Y-118399628D01*
X115293304Y-118418038D01*
X115282509Y-118419941D01*
X115078485Y-118474609D01*
X115068193Y-118478355D01*
X114876759Y-118567623D01*
X114867268Y-118573103D01*
X114823435Y-118603794D01*
X114815060Y-118614271D01*
X112864914Y-118614271D01*
X112862119Y-118551668D01*
X112895383Y-118492643D01*
X114737315Y-116650711D01*
X114745419Y-116643284D01*
X114765849Y-116626141D01*
X114774294Y-116619055D01*
X114779807Y-116609506D01*
X114793139Y-116586415D01*
X114799045Y-116577144D01*
X114814330Y-116555315D01*
X114820654Y-116546284D01*
X114823508Y-116535634D01*
X114824985Y-116532466D01*
X114826177Y-116529190D01*
X114831688Y-116519645D01*
X114838230Y-116482542D01*
X114840609Y-116471810D01*
X114850364Y-116435407D01*
X114847079Y-116397857D01*
X114846600Y-116386876D01*
X114846600Y-115925917D01*
X114866602Y-115857796D01*
X114883505Y-115836821D01*
X115520705Y-115199622D01*
X115583017Y-115165597D01*
X115653833Y-115170662D01*
G37*
%TD.AperFunction*%
%TA.AperFunction,Conductor*%
G36*
X118948251Y-113260841D02*
G01*
X119005087Y-113303388D01*
X119020628Y-113330679D01*
X119028089Y-113348692D01*
X119061164Y-113428541D01*
X119157418Y-113553982D01*
X119282859Y-113650236D01*
X119428938Y-113710744D01*
X119437126Y-113711822D01*
X119507319Y-113721063D01*
X119585700Y-113731382D01*
X119593888Y-113730304D01*
X119734274Y-113711822D01*
X119742462Y-113710744D01*
X119888541Y-113650236D01*
X120013982Y-113553982D01*
X120055023Y-113500496D01*
X120112361Y-113458629D01*
X120154986Y-113451200D01*
X120943684Y-113451200D01*
X121011805Y-113471202D01*
X121032779Y-113488105D01*
X121945062Y-114400388D01*
X121979088Y-114462700D01*
X121974023Y-114533515D01*
X121931476Y-114590351D01*
X121880548Y-114613062D01*
X121876444Y-114613878D01*
X121870239Y-114615112D01*
X121870238Y-114615112D01*
X121858069Y-114617533D01*
X121791748Y-114661848D01*
X121747433Y-114728169D01*
X121735800Y-114786652D01*
X121735800Y-117326148D01*
X121747433Y-117384631D01*
X121791748Y-117450952D01*
X121858069Y-117495267D01*
X121870238Y-117497688D01*
X121870239Y-117497688D01*
X121910484Y-117505693D01*
X121916552Y-117506900D01*
X122376261Y-117506900D01*
X122444382Y-117526902D01*
X122490875Y-117580558D01*
X122500979Y-117650832D01*
X122471485Y-117715412D01*
X122424480Y-117749309D01*
X122321259Y-117792064D01*
X122195818Y-117888318D01*
X122190795Y-117894864D01*
X122187504Y-117899153D01*
X122099564Y-118013759D01*
X122039056Y-118159838D01*
X122018418Y-118316600D01*
X122019496Y-118324788D01*
X122028596Y-118393912D01*
X122017656Y-118464061D01*
X121970528Y-118517159D01*
X121902174Y-118536349D01*
X121834296Y-118515538D01*
X121814579Y-118499453D01*
X121027538Y-117712412D01*
X120993512Y-117650100D01*
X120998577Y-117579285D01*
X121041124Y-117522449D01*
X121092052Y-117499738D01*
X121096156Y-117498922D01*
X121102361Y-117497688D01*
X121102362Y-117497688D01*
X121114531Y-117495267D01*
X121180852Y-117450952D01*
X121225167Y-117384631D01*
X121236800Y-117326148D01*
X121236800Y-114786652D01*
X121225167Y-114728169D01*
X121180852Y-114661848D01*
X121114531Y-114617533D01*
X121102362Y-114615112D01*
X121102361Y-114615112D01*
X121062116Y-114607107D01*
X121056048Y-114605900D01*
X119916552Y-114605900D01*
X119910484Y-114607107D01*
X119870239Y-114615112D01*
X119870238Y-114615112D01*
X119858069Y-114617533D01*
X119791748Y-114661848D01*
X119747433Y-114728169D01*
X119735800Y-114786652D01*
X119735800Y-117326148D01*
X119747433Y-117384631D01*
X119791748Y-117450952D01*
X119858069Y-117495267D01*
X119870238Y-117497688D01*
X119870239Y-117497688D01*
X119910484Y-117505693D01*
X119916552Y-117506900D01*
X120032953Y-117506900D01*
X120101074Y-117526902D01*
X120147567Y-117580558D01*
X120158473Y-117643878D01*
X120157036Y-117660307D01*
X120166791Y-117696710D01*
X120169170Y-117707442D01*
X120175712Y-117744545D01*
X120181223Y-117754090D01*
X120182415Y-117757366D01*
X120183892Y-117760534D01*
X120186746Y-117771184D01*
X120197403Y-117786403D01*
X120208355Y-117802044D01*
X120214261Y-117811315D01*
X120224157Y-117828455D01*
X120233106Y-117843955D01*
X120241551Y-117851041D01*
X120261982Y-117868185D01*
X120270085Y-117875611D01*
X120927493Y-118533019D01*
X120961519Y-118595331D01*
X120956454Y-118666146D01*
X120913907Y-118722982D01*
X120847387Y-118747793D01*
X120801823Y-118742689D01*
X120783809Y-118737224D01*
X120783803Y-118737223D01*
X120777883Y-118735427D01*
X120589200Y-118716843D01*
X120400517Y-118735427D01*
X120394597Y-118737223D01*
X120394591Y-118737224D01*
X120263771Y-118776908D01*
X120219085Y-118790463D01*
X120051876Y-118879838D01*
X119905317Y-119000117D01*
X119901395Y-119004896D01*
X119809238Y-119117189D01*
X119785038Y-119146676D01*
X119784757Y-119147202D01*
X119731773Y-119191482D01*
X119661329Y-119200329D01*
X119597286Y-119169688D01*
X119584964Y-119156944D01*
X119582905Y-119154490D01*
X119577394Y-119144945D01*
X119548524Y-119120720D01*
X119540421Y-119113294D01*
X118845165Y-118418038D01*
X118149121Y-117721995D01*
X118115096Y-117659683D01*
X118120160Y-117588868D01*
X118162707Y-117532032D01*
X118229227Y-117507221D01*
X118238216Y-117506900D01*
X119056048Y-117506900D01*
X119062116Y-117505693D01*
X119102361Y-117497688D01*
X119102362Y-117497688D01*
X119114531Y-117495267D01*
X119180852Y-117450952D01*
X119225167Y-117384631D01*
X119236800Y-117326148D01*
X119236800Y-114786652D01*
X119225167Y-114728169D01*
X119180852Y-114661848D01*
X119114531Y-114617533D01*
X119102362Y-114615112D01*
X119102361Y-114615112D01*
X119062116Y-114607107D01*
X119056048Y-114605900D01*
X117924317Y-114605900D01*
X117856196Y-114585898D01*
X117809703Y-114532242D01*
X117799599Y-114461968D01*
X117829093Y-114397388D01*
X117835222Y-114390804D01*
X118135065Y-114090962D01*
X118612428Y-113613599D01*
X118620532Y-113606173D01*
X118640950Y-113589040D01*
X118649394Y-113581955D01*
X118654904Y-113572412D01*
X118654907Y-113572408D01*
X118668236Y-113549321D01*
X118674141Y-113540051D01*
X118689432Y-113518213D01*
X118695754Y-113509184D01*
X118698607Y-113498536D01*
X118700086Y-113495365D01*
X118701278Y-113492089D01*
X118706788Y-113482545D01*
X118713334Y-113445424D01*
X118715708Y-113434717D01*
X118723623Y-113405174D01*
X118756234Y-113348692D01*
X118815124Y-113289802D01*
X118877436Y-113255776D01*
X118948251Y-113260841D01*
G37*
%TD.AperFunction*%
%TA.AperFunction,Conductor*%
G36*
X108011763Y-101379236D02*
G01*
X108047724Y-101440451D01*
X108051503Y-101470921D01*
X108070103Y-116453506D01*
X108083446Y-116453574D01*
X108083447Y-116453574D01*
X113681787Y-116482040D01*
X113749805Y-116502388D01*
X113796024Y-116556279D01*
X113805771Y-116626604D01*
X113775950Y-116691034D01*
X113770241Y-116697133D01*
X112483579Y-117983795D01*
X112421267Y-118017821D01*
X112394484Y-118020700D01*
X96090320Y-118020700D01*
X96022199Y-118000698D01*
X95983633Y-117961736D01*
X95982467Y-117959879D01*
X95909616Y-117843938D01*
X95782062Y-117716384D01*
X95765075Y-117705710D01*
X95635314Y-117624176D01*
X95629322Y-117620411D01*
X95459055Y-117560832D01*
X95452028Y-117560040D01*
X95452027Y-117560040D01*
X95412344Y-117555569D01*
X95324754Y-117545700D01*
X94684846Y-117545700D01*
X94597256Y-117555569D01*
X94557573Y-117560040D01*
X94557572Y-117560040D01*
X94550545Y-117560832D01*
X94380278Y-117620411D01*
X94374286Y-117624176D01*
X94244526Y-117705710D01*
X94227538Y-117716384D01*
X94099984Y-117843938D01*
X94096217Y-117849932D01*
X94096217Y-117849933D01*
X94023664Y-117965400D01*
X94004011Y-117996678D01*
X93944432Y-118166945D01*
X93943641Y-118173968D01*
X93943638Y-118173980D01*
X93942378Y-118185165D01*
X93914873Y-118250618D01*
X93856349Y-118290809D01*
X93785385Y-118292980D01*
X93728076Y-118260150D01*
X93661705Y-118193779D01*
X93627679Y-118131467D01*
X93624800Y-118104684D01*
X93624800Y-115383816D01*
X93644802Y-115315695D01*
X93698458Y-115269202D01*
X93768732Y-115259098D01*
X93833312Y-115288592D01*
X93839895Y-115294721D01*
X94155453Y-115610279D01*
X94189479Y-115672591D01*
X94184414Y-115743406D01*
X94155453Y-115788469D01*
X94099984Y-115843938D01*
X94004011Y-115996678D01*
X93944432Y-116166945D01*
X93924235Y-116346200D01*
X93925027Y-116353229D01*
X93939706Y-116483506D01*
X93944432Y-116525455D01*
X94004011Y-116695722D01*
X94099984Y-116848462D01*
X94227538Y-116976016D01*
X94380278Y-117071989D01*
X94550545Y-117131568D01*
X94557572Y-117132360D01*
X94557573Y-117132360D01*
X94597256Y-117136831D01*
X94684846Y-117146700D01*
X95324754Y-117146700D01*
X95412344Y-117136831D01*
X95452027Y-117132360D01*
X95452028Y-117132360D01*
X95459055Y-117131568D01*
X95629322Y-117071989D01*
X95782062Y-116976016D01*
X95909616Y-116848462D01*
X96005589Y-116695722D01*
X96065168Y-116525455D01*
X96069895Y-116483506D01*
X96084573Y-116353229D01*
X96085365Y-116346200D01*
X96065168Y-116166945D01*
X96005589Y-115996678D01*
X95909616Y-115843938D01*
X95782062Y-115716384D01*
X95629322Y-115620411D01*
X95459055Y-115560832D01*
X95452030Y-115560041D01*
X95452028Y-115560040D01*
X95442192Y-115558932D01*
X95376739Y-115531428D01*
X95336546Y-115472904D01*
X95330300Y-115433724D01*
X95330300Y-115363706D01*
X95324178Y-115346886D01*
X95318495Y-115325676D01*
X95315388Y-115308055D01*
X95311957Y-115302113D01*
X95307618Y-115233820D01*
X95342137Y-115171780D01*
X95404717Y-115138251D01*
X95416411Y-115136373D01*
X95438722Y-115133859D01*
X95452027Y-115132360D01*
X95452028Y-115132360D01*
X95459055Y-115131568D01*
X95629322Y-115071989D01*
X95782062Y-114976016D01*
X95909616Y-114848462D01*
X96005589Y-114695722D01*
X96065168Y-114525455D01*
X96073319Y-114453117D01*
X96084573Y-114353229D01*
X96085365Y-114346200D01*
X96071873Y-114226455D01*
X96065960Y-114173973D01*
X96065960Y-114173972D01*
X96065168Y-114166945D01*
X96005589Y-113996678D01*
X95967555Y-113936148D01*
X95913383Y-113849933D01*
X95913383Y-113849932D01*
X95909616Y-113843938D01*
X95782062Y-113716384D01*
X95752902Y-113698061D01*
X95705866Y-113644885D01*
X95695046Y-113574718D01*
X95723879Y-113509840D01*
X95730845Y-113502281D01*
X107760115Y-101473011D01*
X107768219Y-101465584D01*
X107788649Y-101448441D01*
X107797094Y-101441355D01*
X107802607Y-101431806D01*
X107815939Y-101408715D01*
X107821873Y-101399404D01*
X107822318Y-101398769D01*
X107877792Y-101354462D01*
X107948415Y-101347181D01*
X108011763Y-101379236D01*
G37*
%TD.AperFunction*%
%TA.AperFunction,Conductor*%
G36*
X115677921Y-99426802D02*
G01*
X115724414Y-99480458D01*
X115735800Y-99532800D01*
X115735800Y-101926148D01*
X115747433Y-101984631D01*
X115791748Y-102050952D01*
X115802061Y-102057843D01*
X115846007Y-102087207D01*
X115858069Y-102095267D01*
X115870238Y-102097688D01*
X115870239Y-102097688D01*
X115910484Y-102105693D01*
X115916552Y-102106900D01*
X116034800Y-102106900D01*
X116102921Y-102126902D01*
X116149414Y-102180558D01*
X116160800Y-102232900D01*
X116160800Y-102288894D01*
X116166921Y-102305710D01*
X116172605Y-102326924D01*
X116175712Y-102344545D01*
X116184660Y-102360044D01*
X116193938Y-102379940D01*
X116200060Y-102396760D01*
X116207146Y-102405205D01*
X116207147Y-102405207D01*
X116211565Y-102410472D01*
X116224156Y-102428453D01*
X116233106Y-102443955D01*
X116241548Y-102451039D01*
X116241550Y-102451041D01*
X116246816Y-102455460D01*
X116262342Y-102470986D01*
X116265621Y-102474893D01*
X116273845Y-102484694D01*
X116289343Y-102493642D01*
X116307333Y-102506239D01*
X116321039Y-102517740D01*
X116331392Y-102521508D01*
X116331397Y-102521511D01*
X116337860Y-102523863D01*
X116357760Y-102533142D01*
X116373255Y-102542088D01*
X116384109Y-102544002D01*
X116384115Y-102544004D01*
X116390876Y-102545196D01*
X116412084Y-102550878D01*
X116417608Y-102552888D01*
X116428906Y-102557000D01*
X116846184Y-102557000D01*
X116914305Y-102577002D01*
X116935279Y-102593905D01*
X128732179Y-114390805D01*
X128766205Y-114453117D01*
X128761140Y-114523932D01*
X128718593Y-114580768D01*
X128652073Y-114605579D01*
X128643084Y-114605900D01*
X127916552Y-114605900D01*
X127910484Y-114607107D01*
X127870239Y-114615112D01*
X127870238Y-114615112D01*
X127858069Y-114617533D01*
X127791748Y-114661848D01*
X127747433Y-114728169D01*
X127735800Y-114786652D01*
X127735800Y-117180000D01*
X127715798Y-117248121D01*
X127662142Y-117294614D01*
X127609800Y-117306000D01*
X127362800Y-117306000D01*
X127294679Y-117285998D01*
X127248186Y-117232342D01*
X127236800Y-117180000D01*
X127236800Y-114786652D01*
X127225167Y-114728169D01*
X127180852Y-114661848D01*
X127114531Y-114617533D01*
X127102362Y-114615112D01*
X127102361Y-114615112D01*
X127062116Y-114607107D01*
X127056048Y-114605900D01*
X126939646Y-114605900D01*
X126871525Y-114585898D01*
X126825032Y-114532242D01*
X126814126Y-114468922D01*
X126815563Y-114452493D01*
X126805812Y-114416103D01*
X126803432Y-114405369D01*
X126798802Y-114379112D01*
X126796888Y-114368255D01*
X126791376Y-114358707D01*
X126790183Y-114355430D01*
X126788706Y-114352262D01*
X126785853Y-114341616D01*
X126764242Y-114310752D01*
X126758338Y-114301484D01*
X126739494Y-114268845D01*
X126710623Y-114244620D01*
X126702518Y-114237192D01*
X124620211Y-112154885D01*
X124612784Y-112146781D01*
X124595641Y-112126351D01*
X124595642Y-112126351D01*
X124588555Y-112117906D01*
X124579006Y-112112393D01*
X124555915Y-112099061D01*
X124546644Y-112093155D01*
X124524815Y-112077870D01*
X124515784Y-112071546D01*
X124505134Y-112068692D01*
X124501966Y-112067215D01*
X124498690Y-112066023D01*
X124489145Y-112060512D01*
X124455401Y-112054562D01*
X124452042Y-112053970D01*
X124441315Y-112051592D01*
X124404907Y-112041836D01*
X124393922Y-112042797D01*
X124393920Y-112042797D01*
X124367372Y-112045120D01*
X124356390Y-112045600D01*
X119293210Y-112045600D01*
X119282228Y-112045120D01*
X119255680Y-112042797D01*
X119255678Y-112042797D01*
X119244693Y-112041836D01*
X119208285Y-112051592D01*
X119197558Y-112053970D01*
X119194199Y-112054562D01*
X119160455Y-112060512D01*
X119150910Y-112066023D01*
X119147634Y-112067215D01*
X119144466Y-112068692D01*
X119133816Y-112071546D01*
X119124785Y-112077870D01*
X119102956Y-112093155D01*
X119093685Y-112099061D01*
X119070594Y-112112393D01*
X119061045Y-112117906D01*
X119053959Y-112126351D01*
X119036815Y-112146782D01*
X119029389Y-112154885D01*
X118179985Y-113004289D01*
X118171881Y-113011716D01*
X118143006Y-113035945D01*
X118137493Y-113045494D01*
X118124161Y-113068585D01*
X118118255Y-113077856D01*
X118096646Y-113108716D01*
X118093792Y-113119366D01*
X118092315Y-113122534D01*
X118091123Y-113125810D01*
X118085612Y-113135355D01*
X118081451Y-113158957D01*
X118079070Y-113172458D01*
X118076691Y-113183187D01*
X118074850Y-113190058D01*
X118068777Y-113212723D01*
X118036166Y-113269207D01*
X117304778Y-114000595D01*
X117242466Y-114034621D01*
X117215683Y-114037500D01*
X115916698Y-114037500D01*
X115905716Y-114037020D01*
X115879180Y-114034698D01*
X115879178Y-114034698D01*
X115868193Y-114033737D01*
X115857543Y-114036591D01*
X115857541Y-114036591D01*
X115831804Y-114043488D01*
X115821069Y-114045868D01*
X115813508Y-114047201D01*
X115783955Y-114052412D01*
X115774407Y-114057924D01*
X115771130Y-114059117D01*
X115767962Y-114060594D01*
X115757316Y-114063447D01*
X115748287Y-114069769D01*
X115726453Y-114085057D01*
X115717185Y-114090961D01*
X115684545Y-114109806D01*
X115677462Y-114118247D01*
X115677461Y-114118248D01*
X115660320Y-114138676D01*
X115652894Y-114146779D01*
X114304884Y-115494790D01*
X114296781Y-115502216D01*
X114267906Y-115526445D01*
X114262393Y-115535994D01*
X114249061Y-115559085D01*
X114243155Y-115568356D01*
X114221546Y-115599216D01*
X114218692Y-115609867D01*
X114217217Y-115613030D01*
X114216024Y-115616308D01*
X114214558Y-115618847D01*
X114214410Y-115619048D01*
X114214276Y-115619336D01*
X114213987Y-115619836D01*
X114213870Y-115619781D01*
X114213542Y-115620228D01*
X114211532Y-115624088D01*
X114210512Y-115625855D01*
X114210512Y-115625856D01*
X114209730Y-115625404D01*
X114173533Y-115674563D01*
X114107211Y-115699899D01*
X114037720Y-115685356D01*
X113987122Y-115635553D01*
X113971229Y-115574139D01*
X113971246Y-115560832D01*
X113979777Y-108671848D01*
X113990081Y-100351623D01*
X113990081Y-100351622D01*
X113990103Y-100333506D01*
X113976625Y-100333460D01*
X113976623Y-100333460D01*
X108323328Y-100314361D01*
X108255276Y-100294129D01*
X108208964Y-100240317D01*
X108199098Y-100170009D01*
X108228809Y-100105528D01*
X108234640Y-100099286D01*
X108890224Y-99443703D01*
X108952534Y-99409679D01*
X108979317Y-99406800D01*
X115609800Y-99406800D01*
X115677921Y-99426802D01*
G37*
%TD.AperFunction*%
%TA.AperFunction,Conductor*%
G36*
X103429993Y-100442199D02*
G01*
X103486829Y-100484746D01*
X103511640Y-100551266D01*
X103511877Y-100564857D01*
X103504988Y-100753365D01*
X103534614Y-101022618D01*
X103603128Y-101284688D01*
X103604929Y-101288926D01*
X103683157Y-101473011D01*
X103709070Y-101533990D01*
X103711463Y-101537911D01*
X103711466Y-101537917D01*
X103781200Y-101652179D01*
X103850182Y-101765210D01*
X104023455Y-101973420D01*
X104026879Y-101976488D01*
X104026883Y-101976492D01*
X104098473Y-102040636D01*
X104225198Y-102154182D01*
X104270324Y-102184037D01*
X104447052Y-102300959D01*
X104451110Y-102303644D01*
X104583304Y-102365614D01*
X104692207Y-102416666D01*
X104692211Y-102416668D01*
X104696376Y-102418620D01*
X104955769Y-102496660D01*
X104960326Y-102497331D01*
X104960332Y-102497332D01*
X105219199Y-102535429D01*
X105219204Y-102535429D01*
X105223761Y-102536100D01*
X105426831Y-102536100D01*
X105466205Y-102533218D01*
X105535603Y-102548194D01*
X105585889Y-102598313D01*
X105601096Y-102667661D01*
X105576396Y-102734223D01*
X105564497Y-102747977D01*
X95253779Y-113058695D01*
X95191467Y-113092721D01*
X95164684Y-113095600D01*
X94947406Y-113095600D01*
X94930586Y-113101722D01*
X94909376Y-113107405D01*
X94891755Y-113110512D01*
X94876256Y-113119460D01*
X94856357Y-113128739D01*
X94839540Y-113134860D01*
X94831095Y-113141946D01*
X94831093Y-113141947D01*
X94825828Y-113146365D01*
X94807847Y-113158956D01*
X94792345Y-113167906D01*
X94785261Y-113176348D01*
X94785259Y-113176350D01*
X94780840Y-113181616D01*
X94765314Y-113197142D01*
X94760677Y-113201034D01*
X94751606Y-113208645D01*
X94742658Y-113224143D01*
X94730061Y-113242133D01*
X94718560Y-113255839D01*
X94714792Y-113266192D01*
X94714789Y-113266197D01*
X94712437Y-113272660D01*
X94703157Y-113292562D01*
X94694212Y-113308055D01*
X94692298Y-113318909D01*
X94692296Y-113318915D01*
X94691104Y-113325676D01*
X94685422Y-113346884D01*
X94683412Y-113352408D01*
X94679300Y-113363706D01*
X94679300Y-113433724D01*
X94659298Y-113501845D01*
X94605642Y-113548338D01*
X94567408Y-113558932D01*
X94557572Y-113560040D01*
X94557570Y-113560041D01*
X94550545Y-113560832D01*
X94380278Y-113620411D01*
X94286835Y-113679125D01*
X94218515Y-113698431D01*
X94150602Y-113677736D01*
X94104659Y-113623609D01*
X94093800Y-113572438D01*
X94093800Y-112084316D01*
X94113802Y-112016195D01*
X94130705Y-111995221D01*
X102682922Y-103443005D01*
X102691026Y-103435578D01*
X102711450Y-103418440D01*
X102719894Y-103411355D01*
X102725404Y-103401812D01*
X102725407Y-103401808D01*
X102738736Y-103378721D01*
X102744641Y-103369451D01*
X102759932Y-103347613D01*
X102766254Y-103338584D01*
X102769107Y-103327936D01*
X102770586Y-103324765D01*
X102771778Y-103321489D01*
X102777288Y-103311945D01*
X102783834Y-103274824D01*
X102786208Y-103264117D01*
X102795963Y-103227707D01*
X102792679Y-103190169D01*
X102792200Y-103179188D01*
X102792200Y-101028016D01*
X102812202Y-100959895D01*
X102829105Y-100938921D01*
X103296866Y-100471160D01*
X103359178Y-100437134D01*
X103429993Y-100442199D01*
G37*
%TD.AperFunction*%
%TA.AperFunction,Conductor*%
G36*
X124096305Y-98471102D02*
G01*
X124117279Y-98488005D01*
X124620079Y-98990805D01*
X124654105Y-99053117D01*
X124649040Y-99123932D01*
X124606493Y-99180768D01*
X124539973Y-99205579D01*
X124530984Y-99205900D01*
X123916552Y-99205900D01*
X123910484Y-99207107D01*
X123870239Y-99215112D01*
X123870238Y-99215112D01*
X123858069Y-99217533D01*
X123791748Y-99261848D01*
X123747433Y-99328169D01*
X123745012Y-99340338D01*
X123745012Y-99340339D01*
X123742227Y-99354340D01*
X123735800Y-99386652D01*
X123735800Y-101926148D01*
X123747433Y-101984631D01*
X123791748Y-102050952D01*
X123802061Y-102057843D01*
X123846007Y-102087207D01*
X123858069Y-102095267D01*
X123870238Y-102097688D01*
X123870239Y-102097688D01*
X123910483Y-102105693D01*
X123910485Y-102105693D01*
X123916552Y-102106900D01*
X123922737Y-102106900D01*
X123923377Y-102106963D01*
X123989209Y-102133547D01*
X124030217Y-102191503D01*
X124033383Y-102262429D01*
X124020342Y-102294862D01*
X124015664Y-102300959D01*
X123955156Y-102447038D01*
X123954078Y-102455226D01*
X123949756Y-102488058D01*
X123934518Y-102603800D01*
X123955156Y-102760562D01*
X124015664Y-102906641D01*
X124084141Y-102995882D01*
X124097868Y-103013771D01*
X124111918Y-103032082D01*
X124118464Y-103037105D01*
X124165404Y-103073123D01*
X124207271Y-103130461D01*
X124214700Y-103173086D01*
X124214700Y-104029490D01*
X124214220Y-104040472D01*
X124210936Y-104078007D01*
X124220691Y-104114410D01*
X124223070Y-104125142D01*
X124229612Y-104162245D01*
X124235123Y-104171790D01*
X124236315Y-104175066D01*
X124237792Y-104178234D01*
X124240646Y-104188884D01*
X124258496Y-104214376D01*
X124262255Y-104219744D01*
X124268161Y-104229015D01*
X124281493Y-104252106D01*
X124287006Y-104261655D01*
X124295451Y-104268741D01*
X124315882Y-104285885D01*
X124323985Y-104293311D01*
X130703362Y-110672688D01*
X130737388Y-110735000D01*
X130737847Y-110786360D01*
X130735800Y-110796652D01*
X130735800Y-111936148D01*
X130747433Y-111994631D01*
X130749406Y-111997583D01*
X130756338Y-112062074D01*
X130724557Y-112125560D01*
X130663499Y-112161787D01*
X130632340Y-112165700D01*
X128933016Y-112165700D01*
X128864895Y-112145698D01*
X128843921Y-112128795D01*
X119027538Y-102312412D01*
X118993512Y-102250100D01*
X118998577Y-102179285D01*
X119041124Y-102122449D01*
X119092052Y-102099738D01*
X119096156Y-102098922D01*
X119102361Y-102097688D01*
X119102362Y-102097688D01*
X119114531Y-102095267D01*
X119126594Y-102087207D01*
X119170539Y-102057843D01*
X119180852Y-102050952D01*
X119225167Y-101984631D01*
X119236800Y-101926148D01*
X119236800Y-99532800D01*
X119256802Y-99464679D01*
X119310458Y-99418186D01*
X119362800Y-99406800D01*
X119609800Y-99406800D01*
X119677921Y-99426802D01*
X119724414Y-99480458D01*
X119735800Y-99532800D01*
X119735800Y-101926148D01*
X119747433Y-101984631D01*
X119791748Y-102050952D01*
X119802061Y-102057843D01*
X119846007Y-102087207D01*
X119858069Y-102095267D01*
X119870238Y-102097688D01*
X119870239Y-102097688D01*
X119910484Y-102105693D01*
X119916552Y-102106900D01*
X121056048Y-102106900D01*
X121062116Y-102105693D01*
X121102361Y-102097688D01*
X121102362Y-102097688D01*
X121114531Y-102095267D01*
X121126594Y-102087207D01*
X121170539Y-102057843D01*
X121180852Y-102050952D01*
X121225167Y-101984631D01*
X121236800Y-101926148D01*
X121236800Y-99386652D01*
X121230373Y-99354340D01*
X121227588Y-99340339D01*
X121227588Y-99340338D01*
X121225167Y-99328169D01*
X121180852Y-99261848D01*
X121114531Y-99217533D01*
X121102362Y-99215112D01*
X121102361Y-99215112D01*
X121062116Y-99207107D01*
X121056048Y-99205900D01*
X120937800Y-99205900D01*
X120869679Y-99185898D01*
X120823186Y-99132242D01*
X120811800Y-99079900D01*
X120811800Y-99048000D01*
X120831802Y-98979879D01*
X120885458Y-98933386D01*
X120937800Y-98922000D01*
X121814484Y-98922000D01*
X121882605Y-98942002D01*
X121903579Y-98958905D01*
X121945062Y-99000388D01*
X121979088Y-99062700D01*
X121974023Y-99133515D01*
X121931476Y-99190351D01*
X121880548Y-99213062D01*
X121876444Y-99213878D01*
X121870239Y-99215112D01*
X121870238Y-99215112D01*
X121858069Y-99217533D01*
X121791748Y-99261848D01*
X121747433Y-99328169D01*
X121745012Y-99340338D01*
X121745012Y-99340339D01*
X121742227Y-99354340D01*
X121735800Y-99386652D01*
X121735800Y-101926148D01*
X121747433Y-101984631D01*
X121791748Y-102050952D01*
X121802061Y-102057843D01*
X121846007Y-102087207D01*
X121858069Y-102095267D01*
X121870238Y-102097688D01*
X121870239Y-102097688D01*
X121910484Y-102105693D01*
X121916552Y-102106900D01*
X123056048Y-102106900D01*
X123062116Y-102105693D01*
X123102361Y-102097688D01*
X123102362Y-102097688D01*
X123114531Y-102095267D01*
X123126594Y-102087207D01*
X123170539Y-102057843D01*
X123180852Y-102050952D01*
X123225167Y-101984631D01*
X123236800Y-101926148D01*
X123236800Y-99386652D01*
X123230373Y-99354340D01*
X123227588Y-99340339D01*
X123227588Y-99340338D01*
X123225167Y-99328169D01*
X123180852Y-99261848D01*
X123114531Y-99217533D01*
X123102362Y-99215112D01*
X123102361Y-99215112D01*
X123062116Y-99207107D01*
X123056048Y-99205900D01*
X122939647Y-99205900D01*
X122871526Y-99185898D01*
X122825033Y-99132242D01*
X122814127Y-99068922D01*
X122815564Y-99052493D01*
X122805808Y-99016085D01*
X122803430Y-99005358D01*
X122801909Y-98996731D01*
X122796888Y-98968255D01*
X122791377Y-98958710D01*
X122790185Y-98955434D01*
X122788708Y-98952266D01*
X122785854Y-98941616D01*
X122764245Y-98910756D01*
X122758339Y-98901485D01*
X122745007Y-98878394D01*
X122739494Y-98868845D01*
X122710617Y-98844615D01*
X122702515Y-98837189D01*
X122531521Y-98666195D01*
X122497495Y-98603883D01*
X122502560Y-98533068D01*
X122545107Y-98476232D01*
X122611627Y-98451421D01*
X122620616Y-98451100D01*
X124028184Y-98451100D01*
X124096305Y-98471102D01*
G37*
%TD.AperFunction*%
%TA.AperFunction,Conductor*%
G36*
X102059232Y-101174660D02*
G01*
X102116068Y-101217207D01*
X102140879Y-101283727D01*
X102141200Y-101292716D01*
X102141200Y-103011883D01*
X102121198Y-103080004D01*
X102104295Y-103100978D01*
X97885540Y-107319734D01*
X96874074Y-108331200D01*
X96811762Y-108365226D01*
X96740947Y-108360161D01*
X96684111Y-108317614D01*
X96659459Y-108253088D01*
X96658880Y-108246471D01*
X96658400Y-108235488D01*
X96658400Y-106523516D01*
X96678402Y-106455395D01*
X96695305Y-106434421D01*
X101926105Y-101203621D01*
X101988417Y-101169595D01*
X102059232Y-101174660D01*
G37*
%TD.AperFunction*%
%TD*%
%TA.AperFunction,NonConductor*%
G36*
X124257205Y-112716602D02*
G01*
X124278179Y-112733505D01*
X125945061Y-114400388D01*
X125979087Y-114462700D01*
X125974022Y-114533516D01*
X125931475Y-114590351D01*
X125880548Y-114613062D01*
X125876444Y-114613878D01*
X125870239Y-114615112D01*
X125870238Y-114615112D01*
X125858069Y-114617533D01*
X125791748Y-114661848D01*
X125747433Y-114728169D01*
X125735800Y-114786652D01*
X125735800Y-117326148D01*
X125733416Y-117326148D01*
X125722145Y-117385515D01*
X125699086Y-117417186D01*
X125235439Y-117880833D01*
X125173127Y-117914859D01*
X125102312Y-117909794D01*
X125045476Y-117867247D01*
X125024637Y-117824347D01*
X125022622Y-117816826D01*
X125021544Y-117808638D01*
X124967454Y-117678053D01*
X124959865Y-117607465D01*
X124991644Y-117543978D01*
X125059281Y-117506257D01*
X125102361Y-117497688D01*
X125102362Y-117497688D01*
X125114531Y-117495267D01*
X125180852Y-117450952D01*
X125225167Y-117384631D01*
X125236800Y-117326148D01*
X125236800Y-114786652D01*
X125225167Y-114728169D01*
X125180852Y-114661848D01*
X125114531Y-114617533D01*
X125102362Y-114615112D01*
X125102361Y-114615112D01*
X125062116Y-114607107D01*
X125056048Y-114605900D01*
X123916552Y-114605900D01*
X123910484Y-114607107D01*
X123870239Y-114615112D01*
X123870238Y-114615112D01*
X123858069Y-114617533D01*
X123791748Y-114661848D01*
X123747433Y-114728169D01*
X123735800Y-114786652D01*
X123735800Y-117326148D01*
X123747433Y-117384631D01*
X123791748Y-117450952D01*
X123802061Y-117457843D01*
X123847751Y-117488373D01*
X123847752Y-117488374D01*
X123851287Y-117490735D01*
X123851289Y-117490737D01*
X123858069Y-117495267D01*
X123857664Y-117495874D01*
X123904276Y-117533436D01*
X123926697Y-117600799D01*
X123911383Y-117662318D01*
X123911964Y-117662559D01*
X123910358Y-117666435D01*
X123910357Y-117666438D01*
X123851456Y-117808638D01*
X123844360Y-117862543D01*
X123842032Y-117880223D01*
X123813310Y-117945150D01*
X123754045Y-117984242D01*
X123728093Y-117989297D01*
X123721826Y-117989845D01*
X123712971Y-117990620D01*
X123701990Y-117991100D01*
X123193386Y-117991100D01*
X123125265Y-117971098D01*
X123093423Y-117941804D01*
X123057405Y-117894864D01*
X123052382Y-117888318D01*
X122926941Y-117792064D01*
X122823721Y-117749309D01*
X122768440Y-117704761D01*
X122746019Y-117637397D01*
X122763577Y-117568606D01*
X122815539Y-117520228D01*
X122871939Y-117506900D01*
X123056048Y-117506900D01*
X123062116Y-117505693D01*
X123102361Y-117497688D01*
X123102362Y-117497688D01*
X123114531Y-117495267D01*
X123180852Y-117450952D01*
X123225167Y-117384631D01*
X123236800Y-117326148D01*
X123236800Y-114786652D01*
X123225167Y-114728169D01*
X123180852Y-114661848D01*
X123114531Y-114617533D01*
X123102362Y-114615112D01*
X123102361Y-114615112D01*
X123062116Y-114607107D01*
X123056048Y-114605900D01*
X122939647Y-114605900D01*
X122871526Y-114585898D01*
X122825033Y-114532242D01*
X122814127Y-114468922D01*
X122815564Y-114452493D01*
X122805808Y-114416085D01*
X122803430Y-114405358D01*
X122802554Y-114400388D01*
X122796888Y-114368255D01*
X122791377Y-114358710D01*
X122790185Y-114355434D01*
X122788708Y-114352266D01*
X122785854Y-114341616D01*
X122764243Y-114310753D01*
X122758339Y-114301485D01*
X122745007Y-114278394D01*
X122745006Y-114278393D01*
X122739494Y-114268845D01*
X122710617Y-114244615D01*
X122702515Y-114237189D01*
X121377021Y-112911695D01*
X121342995Y-112849383D01*
X121348060Y-112778568D01*
X121390607Y-112721732D01*
X121457127Y-112696921D01*
X121466116Y-112696600D01*
X124189084Y-112696600D01*
X124257205Y-112716602D01*
G37*
%TD.AperFunction*%
%TA.AperFunction,NonConductor*%
G36*
X129083721Y-117526902D02*
G01*
X129130214Y-117580558D01*
X129141600Y-117632900D01*
X129141600Y-118442290D01*
X129141120Y-118453272D01*
X129137836Y-118490807D01*
X129146273Y-118522293D01*
X129147591Y-118527210D01*
X129149970Y-118537942D01*
X129156512Y-118575045D01*
X129162023Y-118584590D01*
X129163215Y-118587866D01*
X129164692Y-118591034D01*
X129167546Y-118601684D01*
X129182188Y-118622594D01*
X129189155Y-118632544D01*
X129195061Y-118641815D01*
X129203706Y-118656788D01*
X129213906Y-118674455D01*
X129234460Y-118691702D01*
X129242782Y-118698685D01*
X129250885Y-118706111D01*
X137016795Y-126472021D01*
X137050821Y-126534333D01*
X137053700Y-126561116D01*
X137053700Y-127794080D01*
X137033698Y-127862201D01*
X136994737Y-127900766D01*
X136876938Y-127974784D01*
X136787757Y-128063965D01*
X136725445Y-128097991D01*
X136654630Y-128092926D01*
X136617674Y-128071393D01*
X136603519Y-128059516D01*
X136595427Y-128052100D01*
X130125443Y-121582116D01*
X130091417Y-121519804D01*
X130096482Y-121448989D01*
X130139029Y-121392153D01*
X130198093Y-121368099D01*
X130218262Y-121365444D01*
X130364341Y-121304936D01*
X130489782Y-121208682D01*
X130586036Y-121083241D01*
X130646544Y-120937162D01*
X130667182Y-120780400D01*
X130648850Y-120641157D01*
X130647622Y-120631826D01*
X130646544Y-120623638D01*
X130586036Y-120477559D01*
X130489782Y-120352118D01*
X130482070Y-120346200D01*
X130381304Y-120268880D01*
X130364341Y-120255864D01*
X130218262Y-120195356D01*
X130204051Y-120193485D01*
X130069688Y-120175796D01*
X130061500Y-120174718D01*
X130053312Y-120175796D01*
X129918950Y-120193485D01*
X129904738Y-120195356D01*
X129758659Y-120255864D01*
X129741696Y-120268880D01*
X129640931Y-120346200D01*
X129633218Y-120352118D01*
X129628195Y-120358664D01*
X129592177Y-120405604D01*
X129534839Y-120447471D01*
X129492214Y-120454900D01*
X126548076Y-120454900D01*
X126479955Y-120434898D01*
X126433462Y-120381242D01*
X126423358Y-120310968D01*
X126450676Y-120248967D01*
X126469436Y-120226108D01*
X126469437Y-120226107D01*
X126473362Y-120221324D01*
X126562737Y-120054115D01*
X126583518Y-119985607D01*
X126615976Y-119878609D01*
X126615977Y-119878603D01*
X126617773Y-119872683D01*
X126636357Y-119684000D01*
X126617773Y-119495317D01*
X126615977Y-119489397D01*
X126615976Y-119489391D01*
X126569606Y-119336531D01*
X126562737Y-119313885D01*
X126473362Y-119146676D01*
X126353083Y-119000117D01*
X126206524Y-118879838D01*
X126039315Y-118790463D01*
X125994629Y-118776908D01*
X125863809Y-118737224D01*
X125863803Y-118737223D01*
X125857883Y-118735427D01*
X125669200Y-118716843D01*
X125663037Y-118717450D01*
X125663036Y-118717450D01*
X125632391Y-118720468D01*
X125562638Y-118707239D01*
X125511110Y-118658399D01*
X125494167Y-118589453D01*
X125517189Y-118522293D01*
X125530947Y-118505980D01*
X126043022Y-117993905D01*
X126105334Y-117959879D01*
X126132117Y-117957000D01*
X128543694Y-117957000D01*
X128560514Y-117950878D01*
X128581724Y-117945195D01*
X128588490Y-117944002D01*
X128599345Y-117942088D01*
X128614844Y-117933140D01*
X128634743Y-117923861D01*
X128651560Y-117917740D01*
X128660005Y-117910654D01*
X128660007Y-117910653D01*
X128665272Y-117906235D01*
X128683255Y-117893643D01*
X128683264Y-117893638D01*
X128698755Y-117884694D01*
X128705839Y-117876252D01*
X128705841Y-117876250D01*
X128710260Y-117870984D01*
X128725786Y-117855458D01*
X128731048Y-117851042D01*
X128731049Y-117851041D01*
X128739494Y-117843955D01*
X128748443Y-117828455D01*
X128761039Y-117810467D01*
X128762574Y-117808638D01*
X128772540Y-117796761D01*
X128776308Y-117786408D01*
X128776311Y-117786403D01*
X128778663Y-117779940D01*
X128787944Y-117760036D01*
X128791376Y-117754092D01*
X128791377Y-117754090D01*
X128796888Y-117744545D01*
X128798802Y-117733690D01*
X128798804Y-117733685D01*
X128799996Y-117726924D01*
X128805678Y-117705716D01*
X128808030Y-117699252D01*
X128811800Y-117688894D01*
X128811800Y-117632900D01*
X128831802Y-117564779D01*
X128885458Y-117518286D01*
X128937800Y-117506900D01*
X129015600Y-117506900D01*
X129083721Y-117526902D01*
G37*
%TD.AperFunction*%
%TA.AperFunction,NonConductor*%
G36*
X133845312Y-113203092D02*
G01*
X133851894Y-113209220D01*
X136479494Y-115836821D01*
X139016795Y-118374122D01*
X139050821Y-118436434D01*
X139053700Y-118463217D01*
X139053700Y-127794080D01*
X139033698Y-127862201D01*
X138994737Y-127900766D01*
X138876938Y-127974784D01*
X138749384Y-128102338D01*
X138745617Y-128108332D01*
X138745617Y-128108333D01*
X138735852Y-128123874D01*
X138653411Y-128255078D01*
X138593832Y-128425345D01*
X138578700Y-128559646D01*
X138578700Y-129199554D01*
X138593832Y-129333855D01*
X138653411Y-129504122D01*
X138657176Y-129510114D01*
X138691389Y-129564564D01*
X138710695Y-129632886D01*
X138689999Y-129700799D01*
X138635872Y-129746742D01*
X138584702Y-129757600D01*
X138173698Y-129757600D01*
X138105577Y-129737598D01*
X138059084Y-129683942D01*
X138048980Y-129613668D01*
X138067011Y-129564564D01*
X138101224Y-129510114D01*
X138104989Y-129504122D01*
X138164568Y-129333855D01*
X138179700Y-129199554D01*
X138179700Y-128559646D01*
X138164568Y-128425345D01*
X138104989Y-128255078D01*
X138022548Y-128123874D01*
X138012783Y-128108333D01*
X138012783Y-128108332D01*
X138009016Y-128102338D01*
X137881462Y-127974784D01*
X137763663Y-127900766D01*
X137716626Y-127847589D01*
X137704700Y-127794080D01*
X137704700Y-126393813D01*
X137705179Y-126382832D01*
X137707503Y-126356270D01*
X137707503Y-126356268D01*
X137708463Y-126345293D01*
X137698708Y-126308883D01*
X137696333Y-126298172D01*
X137693126Y-126279987D01*
X137689788Y-126261055D01*
X137684279Y-126251512D01*
X137683088Y-126248240D01*
X137681608Y-126245067D01*
X137678754Y-126234416D01*
X137657145Y-126203556D01*
X137651239Y-126194285D01*
X137637907Y-126171194D01*
X137632394Y-126161645D01*
X137603517Y-126137415D01*
X137595415Y-126129989D01*
X129829505Y-118364079D01*
X129795479Y-118301767D01*
X129792600Y-118274984D01*
X129792600Y-117632900D01*
X129812602Y-117564779D01*
X129866258Y-117518286D01*
X129918600Y-117506900D01*
X131056048Y-117506900D01*
X131062116Y-117505693D01*
X131102361Y-117497688D01*
X131102362Y-117497688D01*
X131114531Y-117495267D01*
X131180852Y-117450952D01*
X131225167Y-117384631D01*
X131236800Y-117326148D01*
X131236800Y-114786652D01*
X131225167Y-114728169D01*
X131180852Y-114661848D01*
X131114531Y-114617533D01*
X131102362Y-114615112D01*
X131102361Y-114615112D01*
X131062116Y-114607107D01*
X131056048Y-114605900D01*
X130939647Y-114605900D01*
X130871526Y-114585898D01*
X130825033Y-114532242D01*
X130814127Y-114468922D01*
X130815564Y-114452493D01*
X130805808Y-114416085D01*
X130803430Y-114405358D01*
X130798802Y-114379112D01*
X130796888Y-114368255D01*
X130791376Y-114358708D01*
X130790200Y-114355477D01*
X130783680Y-114295939D01*
X130792827Y-114226455D01*
X130821549Y-114161528D01*
X130880813Y-114122435D01*
X130917749Y-114116900D01*
X133456048Y-114116900D01*
X133462116Y-114115693D01*
X133502361Y-114107688D01*
X133502362Y-114107688D01*
X133514531Y-114105267D01*
X133580852Y-114060952D01*
X133625167Y-113994631D01*
X133636800Y-113936148D01*
X133636800Y-113298316D01*
X133656802Y-113230195D01*
X133710458Y-113183702D01*
X133780732Y-113173598D01*
X133845312Y-113203092D01*
G37*
%TD.AperFunction*%
M02*
